<svg id="Layer_1" data-name="Layer 1" xmlns="http://www.w3.org/2000/svg" viewBox="0 0 1400 926"><defs><style>.cls-1{fill:#f2f2f2;}.cls-2{fill:#231f20;}.cls-3{opacity:0.75;}.cls-4{fill:#482a72;}.cls-5{fill:#482771;}.cls-6{opacity:0.25;}.cls-7{opacity:0.5;}.cls-8{fill:#fff;}</style></defs><title>20190108-AL2020-Chart-Billions_Spent-Desktop-004</title><rect class="cls-1" width="1400" height="926"/><path class="cls-2" d="M28.05,77.4V42.27h6.54V55.62h14V42.27h6.54V77.4H48.62V61.65h-14V77.4Z"/><path class="cls-2" d="M60.56,64.76a12.91,12.91,0,0,1,3.54-9.41,12.36,12.36,0,0,1,9.31-3.66,12.29,12.29,0,0,1,9.37,3.72,13.09,13.09,0,0,1,3.47,9.34,13.15,13.15,0,0,1-3.48,9.38q-3.42,3.66-9.38,3.66c-4,0-7.09-1.22-9.38-3.66A13.11,13.11,0,0,1,60.56,64.76Zm6.53,0a8.79,8.79,0,0,0,1.7,5.47,5.89,5.89,0,0,0,9.24,0,9.71,9.71,0,0,0,0-11,5.84,5.84,0,0,0-9.2,0A8.76,8.76,0,0,0,67.09,64.76Z"/><path class="cls-2" d="M88.38,52.12h6.27l4.53,17.34,4.27-17.34h5.8l4.26,17.34,4.54-17.34h6.28L116.24,77.4h-5.51l-4.56-17-4.54,17H96.47Z"/><path class="cls-2" d="M137.62,64.76a12.91,12.91,0,0,1,3.54-9.41,13.67,13.67,0,0,1,18.68.06,13.1,13.1,0,0,1,3.48,9.34,13.15,13.15,0,0,1-3.49,9.38q-3.42,3.66-9.37,3.66c-4,0-7.1-1.22-9.39-3.66A13.11,13.11,0,0,1,137.62,64.76Zm6.53,0a8.79,8.79,0,0,0,1.7,5.47,5.89,5.89,0,0,0,9.24,0,9.71,9.71,0,0,0,0-11,5.82,5.82,0,0,0-9.19,0A8.71,8.71,0,0,0,144.15,64.76Z"/><path class="cls-2" d="M167.79,70.17V52.12H174v16.2q0,4.16,3.63,4.16c1.65,0,3-.94,4.11-2.8a14.72,14.72,0,0,0,1.64-7.49V52.12h6.22V77.4H183.4V73.33q-3.09,4.45-7.81,4.46a7.94,7.94,0,0,1-5.68-2A7.37,7.37,0,0,1,167.79,70.17Z"/><path class="cls-2" d="M196.4,77.4V52.12h6.22v4.12A10.35,10.35,0,0,1,206,52.89a7.86,7.86,0,0,1,4.15-1.19,10.31,10.31,0,0,1,3.06.51L212,58a5.19,5.19,0,0,0-2.63-.69,5.63,5.63,0,0,0-4.93,2.78c-1.22,1.86-1.82,4.64-1.82,8.35v9Z"/><path class="cls-2" d="M225.08,57.44V52.12h3.22v-1.3c0-2.94.75-5.17,2.28-6.67A8.74,8.74,0,0,1,237,41.89a10,10,0,0,1,4.7,1l-1.34,5a8.47,8.47,0,0,0-3-.71c-1.9,0-2.84,1-2.84,3.16v1.76h5.31v5.32h-5.31v20h-6.22v-20Z"/><path class="cls-2" d="M242.82,64.76a13,13,0,0,1,3.54-9.41,13.68,13.68,0,0,1,18.69.06,13.14,13.14,0,0,1,3.47,9.34A13.15,13.15,0,0,1,265,74.13q-3.42,3.66-9.37,3.66t-9.39-3.66A13.11,13.11,0,0,1,242.82,64.76Zm6.54,0a8.78,8.78,0,0,0,1.69,5.47,5.89,5.89,0,0,0,9.24,0,9.71,9.71,0,0,0,0-11,5.82,5.82,0,0,0-9.19,0A8.64,8.64,0,0,0,249.36,64.76Z"/><path class="cls-2" d="M273,70.17V52.12h6.22v16.2q0,4.16,3.63,4.16c1.65,0,3-.94,4.12-2.8a14.83,14.83,0,0,0,1.64-7.49V52.12h6.22V77.4h-6.22V73.33q-3.09,4.45-7.82,4.46a7.94,7.94,0,0,1-5.68-2A7.36,7.36,0,0,1,273,70.17Z"/><path class="cls-2" d="M301.6,77.4V52.12h6.22v4.07c2.07-3,4.69-4.47,7.82-4.47a7.88,7.88,0,0,1,5.68,2,7.41,7.41,0,0,1,2.1,5.64v18H317.2V61.18q0-4.14-3.63-4.14-2.47,0-4.12,2.81a14.6,14.6,0,0,0-1.64,7.46V77.4Z"/><path class="cls-2" d="M327.93,64.76q0-6.08,3-9.57t8.54-3.5a8.22,8.22,0,0,1,3.5.79,7.23,7.23,0,0,1,2.61,1.93V41.87h6.22V77.4H345.6V74.8a5.61,5.61,0,0,1-2.37,2.08,8,8,0,0,1-3.75.91q-5.5,0-8.54-3.5T327.93,64.76Zm6.55,0a9.34,9.34,0,0,0,1.54,5.5,5,5,0,0,0,4.33,2.21,4.85,4.85,0,0,0,4.3-2.18,9.59,9.59,0,0,0,1.49-5.54,9.53,9.53,0,0,0-1.5-5.55A4.89,4.89,0,0,0,340.35,57a5.06,5.06,0,0,0-3.23,1.06,6.16,6.16,0,0,0-2,2.79A10.87,10.87,0,0,0,334.48,64.76Z"/><path class="cls-2" d="M356.47,70.13a7.22,7.22,0,0,1,3-6,12.52,12.52,0,0,1,7.8-2.26h4.22V60.74c0-2.46-1.47-3.7-4.4-3.7a4.13,4.13,0,0,0-4.36,2.9l-5.28-1.2a8.05,8.05,0,0,1,3.24-5.11,10.54,10.54,0,0,1,6.4-1.93q10.62,0,10.62,10.61V77.4h-5.12l-.64-3.21a9.51,9.51,0,0,1-7.77,3.6,7.65,7.65,0,0,1-5.56-2.05A7.39,7.39,0,0,1,356.47,70.13ZM363,70a2.36,2.36,0,0,0,.71,1.75,2.64,2.64,0,0,0,1.91.7,6.16,6.16,0,0,0,4.1-1.49,4.72,4.72,0,0,0,1.74-3.72v-.49h-4.16C364.45,66.77,363,67.86,363,70Z"/><path class="cls-2" d="M380,57.44V52.12h3.92V45.8l6.22-3.93V52.11h6.66v5.32h-6.66V68.35a4.87,4.87,0,0,0,.81,3.16,3.09,3.09,0,0,0,2.49.95,5,5,0,0,0,2.4-.59l1.45,5a9.46,9.46,0,0,1-4.12.89,9.36,9.36,0,0,1-6.84-2.38q-2.42-2.37-2.41-7v-11Z"/><path class="cls-2" d="M401.15,47.71a4.13,4.13,0,0,1,0-5.72A3.92,3.92,0,0,1,404,40.83a4,4,0,1,1-2.85,6.88Zm-.27,29.69V52.12h6.22V77.4Z"/><path class="cls-2" d="M411.41,64.76A12.91,12.91,0,0,1,415,55.35a13.67,13.67,0,0,1,18.68.06,13.1,13.1,0,0,1,3.48,9.34,13.15,13.15,0,0,1-3.49,9.38q-3.42,3.66-9.37,3.66c-4,0-7.1-1.22-9.39-3.66A13.11,13.11,0,0,1,411.41,64.76Zm6.54,0a8.78,8.78,0,0,0,1.69,5.47,5.89,5.89,0,0,0,9.24,0,9.71,9.71,0,0,0,0-11,5.82,5.82,0,0,0-9.19,0A8.7,8.7,0,0,0,418,64.76Z"/><path class="cls-2" d="M442,77.4V52.12h6.22v4.07c2.07-3,4.69-4.47,7.82-4.47a7.86,7.86,0,0,1,5.68,2,7.41,7.41,0,0,1,2.1,5.64v18H457.6V61.18Q457.6,57,454,57q-2.48,0-4.12,2.81a14.71,14.71,0,0,0-1.64,7.46V77.4Z"/><path class="cls-2" d="M479.17,71l5-2.67q1.51,4.16,5.06,4.16c2.07,0,3.1-.89,3.1-2.69A2,2,0,0,0,491,67.88a7.91,7.91,0,0,0-1.4-.61,17.16,17.16,0,0,0-1.82-.7c-.9-.32-1.48-.54-1.75-.65a9.56,9.56,0,0,1-3.85-2.67,6.4,6.4,0,0,1-1.28-4.16,7,7,0,0,1,2.28-5.21,8,8,0,0,1,5.81-2.16,9.33,9.33,0,0,1,4.55,1.13,8.85,8.85,0,0,1,3.31,3l-3.67,3.43a5.23,5.23,0,0,0-4.19-2.21,2.43,2.43,0,0,0-1.63.57,1.91,1.91,0,0,0-.65,1.54c0,1,.79,1.84,2.39,2.45,1.1.41,2.42.87,3.94,1.39a14.71,14.71,0,0,1,1.95,1,6.23,6.23,0,0,1,1.6,1.21,6.07,6.07,0,0,1,1.55,4.12,8.2,8.2,0,0,1-2.47,6,8.68,8.68,0,0,1-6.43,2.46,10.07,10.07,0,0,1-6.15-2A11.81,11.81,0,0,1,479.17,71Z"/><path class="cls-2" d="M503,87.64V52.12h6.22v2.6a5.67,5.67,0,0,1,2.38-2.09,7.81,7.81,0,0,1,3.74-.91c3.68,0,6.51,1.16,8.53,3.49s3,5.52,3,9.57-1,7.22-3,9.55-4.85,3.49-8.53,3.49A8.44,8.44,0,0,1,511.8,77a7,7,0,0,1-2.62-1.91V87.64Zm5.68-22.88a9.49,9.49,0,0,0,1.5,5.55,5.36,5.36,0,0,0,8.63,0,9.43,9.43,0,0,0,1.53-5.52,9.48,9.48,0,0,0-1.52-5.52,5,5,0,0,0-4.33-2.2,4.9,4.9,0,0,0-4.31,2.19A9.41,9.41,0,0,0,508.65,64.76Z"/><path class="cls-2" d="M530.31,68.43a16.29,16.29,0,0,1,0-7.35,13.31,13.31,0,0,1,1.37-3.53,11.89,11.89,0,0,1,2.33-3,10.2,10.2,0,0,1,3.45-2.07A13,13,0,0,1,542,51.7a12.19,12.19,0,0,1,5.3,1.13,9.56,9.56,0,0,1,3.76,3.09,13.63,13.63,0,0,1,2.71,8.28v2.57H536.39a6,6,0,0,0,1.76,4,5.64,5.64,0,0,0,4.23,1.65c2.57,0,4.62-1.3,6.13-3.89l5,1.83q-3.24,7.38-11.49,7.38a13,13,0,0,1-4.58-.78A9.91,9.91,0,0,1,534,74.94a12.45,12.45,0,0,1-2.33-3A12.79,12.79,0,0,1,530.31,68.43Zm6.24-6.58h10.9c-.7-3.2-2.51-4.81-5.41-4.81a5.2,5.2,0,0,0-3.66,1.37A5.87,5.87,0,0,0,536.55,61.85Z"/><path class="cls-2" d="M558.38,77.4V52.12h6.22v4.07q3.1-4.47,7.82-4.47a7.89,7.89,0,0,1,5.68,2,7.41,7.41,0,0,1,2.1,5.64v18H574V61.18Q574,57,570.35,57q-2.48,0-4.12,2.81a14.6,14.6,0,0,0-1.64,7.46V77.4Z"/><path class="cls-2" d="M583.46,57.44V52.12h3.92V45.8l6.22-3.93V52.11h6.66v5.32H593.6V68.35a4.87,4.87,0,0,0,.81,3.16,3.1,3.1,0,0,0,2.5.95,5,5,0,0,0,2.39-.59l1.45,5a9.46,9.46,0,0,1-4.12.89,9.36,9.36,0,0,1-6.84-2.38c-1.6-1.58-2.41-3.9-2.41-7v-11Z"/><path class="cls-2" d="M613.87,68l5.27-3.3q2,7.13,7,7.12c3.06,0,4.6-1.53,4.6-4.58q0-2.7-5.25-4.9c-.71-.29-1.33-.56-1.87-.82s-1.15-.58-1.85-1A14.89,14.89,0,0,1,620,59.3a13.57,13.57,0,0,1-1.58-1.44A8.41,8.41,0,0,1,616.27,54a10,10,0,0,1-.28-2.54,9.41,9.41,0,0,1,1.87-5.81,9,9,0,0,1,5-3.37V37.77h6.22v4.56a10.38,10.38,0,0,1,6.72,5.92l-5.27,3.36c-1.27-2.46-2.91-3.7-4.91-3.7a3.41,3.41,0,0,0-2.44.91,3.05,3.05,0,0,0-.95,2.31q0,2.74,5.34,5.21c.78.34,1.41.63,1.9.86s1.12.56,1.88,1a16.71,16.71,0,0,1,1.87,1.19,16.91,16.91,0,0,1,1.6,1.42,7.73,7.73,0,0,1,1.34,1.7,9.57,9.57,0,0,1,.83,2,8.24,8.24,0,0,1,.33,2.4,11,11,0,0,1-2.2,7.06,10,10,0,0,1-6,3.58v4.41h-6.22V77.42A11.68,11.68,0,0,1,617,74,12.73,12.73,0,0,1,613.87,68Z"/><path class="cls-2" d="M641.38,68.08l6-1.08c.66,3.2,2.41,4.79,5.27,4.79a4.79,4.79,0,0,0,3.88-1.58,6.81,6.81,0,0,0,1.34-4.55,6.27,6.27,0,0,0-1.43-4.44,5.3,5.3,0,0,0-4.09-1.53,8.23,8.23,0,0,0-6.22,3.11l-4-.79,2-19.74h18v6H649.2l-.81,7.13a9.51,9.51,0,0,1,5-1.3q5.22,0,8,3.06c1.83,2,2.74,4.87,2.74,8.5A13.66,13.66,0,0,1,662.68,72a10.35,10.35,0,0,1-4,4.3,11.62,11.62,0,0,1-6.07,1.56,11.36,11.36,0,0,1-7.69-2.7A10.45,10.45,0,0,1,641.38,68.08Z"/><path class="cls-2" d="M668.57,67.55l6-.79c.87,3.36,2.76,5,5.69,5a5.38,5.38,0,0,0,4-1.59,5.75,5.75,0,0,0,1.56-4.2,6.25,6.25,0,0,0-1.51-4.47,5.26,5.26,0,0,0-4-1.6,6.84,6.84,0,0,0-3.07.74l-2.5-3.49,6.62-8.91h-11.2v-6h20.07v2.3L682,55.66c.81-.07,1.28-.1,1.39-.1a7.81,7.81,0,0,1,6.34,2.84,11.36,11.36,0,0,1,2.36,7.5,11.24,11.24,0,0,1-11.78,11.88A11.82,11.82,0,0,1,672.24,75,10.93,10.93,0,0,1,668.57,67.55Z"/><path class="cls-2" d="M698,76.55a4.13,4.13,0,1,1,2.86,1.15A3.89,3.89,0,0,1,698,76.55Z"/><path class="cls-2" d="M708.93,66.82c0-3.85,1.51-6.67,4.56-8.44a8.53,8.53,0,0,1-3.24-7,8.85,8.85,0,0,1,2.91-6.77,10.06,10.06,0,0,1,7.12-2.7,9.73,9.73,0,0,1,7.19,2.79,9,9,0,0,1,2.85,6.7,8.58,8.58,0,0,1-3.27,7c3.05,1.76,4.59,4.58,4.59,8.44a10.13,10.13,0,0,1-3.32,8,11.56,11.56,0,0,1-8,3,11.78,11.78,0,0,1-8.08-3A10.17,10.17,0,0,1,708.93,66.82Zm7.66-3.59a5.21,5.21,0,0,0,0,7.19,5.67,5.67,0,0,0,7.4,0,5.26,5.26,0,0,0,0-7.21,5.67,5.67,0,0,0-7.4,0Zm-.54-11.78a4.41,4.41,0,0,0,1.16,3.18,4.51,4.51,0,0,0,6.15,0,4.39,4.39,0,0,0,1.15-3.18,4.2,4.2,0,0,0-1.15-3.08,4.6,4.6,0,0,0-6.15,0A4.2,4.2,0,0,0,716.05,51.45Z"/><path class="cls-2" d="M747.94,77.4V41.87h6.22V54.42a7.14,7.14,0,0,1,2.62-1.92,8.13,8.13,0,0,1,3.51-.8q5.52,0,8.53,3.5t3,9.57c0,4-1,7.21-3,9.54s-4.85,3.5-8.53,3.5a7.89,7.89,0,0,1-3.74-.91,5.59,5.59,0,0,1-2.38-2.08v2.6h-6.23Zm5.68-12.64a9.56,9.56,0,0,0,1.5,5.55,5.36,5.36,0,0,0,8.63,0,9.43,9.43,0,0,0,1.53-5.52,9.48,9.48,0,0,0-1.52-5.52,5,5,0,0,0-4.33-2.2,4.9,4.9,0,0,0-4.31,2.19A9.49,9.49,0,0,0,753.62,64.76Z"/><path class="cls-2" d="M776.37,47.71a4,4,0,1,1,5.71,0,4.12,4.12,0,0,1-5.71,0ZM776.1,77.4V52.12h6.22V77.4Z"/><path class="cls-2" d="M788.4,77.4V41.87h6.22V77.4Z"/><path class="cls-2" d="M801.09,77.4V41.87h6.22V77.4Z"/><path class="cls-2" d="M813.52,47.71a4.13,4.13,0,0,1,0-5.72,3.92,3.92,0,0,1,2.85-1.16,4,4,0,1,1-2.85,6.88Zm-.26,29.69V52.12h6.22V77.4Z"/><path class="cls-2" d="M823.79,64.76a13,13,0,0,1,3.54-9.41,13.68,13.68,0,0,1,18.69.06,13.14,13.14,0,0,1,3.47,9.34A13.15,13.15,0,0,1,846,74.13q-3.42,3.66-9.37,3.66t-9.39-3.66A13.11,13.11,0,0,1,823.79,64.76Zm6.54,0A8.78,8.78,0,0,0,832,70.23a5.9,5.9,0,0,0,9.25,0,9.73,9.73,0,0,0,0-11,5.82,5.82,0,0,0-9.19,0A8.64,8.64,0,0,0,830.33,64.76Z"/><path class="cls-2" d="M854.39,77.4V52.12h6.22v4.07q3.1-4.47,7.81-4.47a7.86,7.86,0,0,1,5.68,2,7.41,7.41,0,0,1,2.1,5.64v18H870V61.18Q870,57,866.35,57q-2.48,0-4.11,2.81a14.6,14.6,0,0,0-1.64,7.46V77.4Z"/><path class="cls-2" d="M891.88,64.76a13,13,0,0,1,3.54-9.41,13.68,13.68,0,0,1,18.69.06,13.09,13.09,0,0,1,3.47,9.34,13.1,13.1,0,0,1-3.48,9.38q-3.44,3.66-9.38,3.66c-4,0-7.09-1.22-9.39-3.66A13.15,13.15,0,0,1,891.88,64.76Zm6.54,0a8.72,8.72,0,0,0,1.7,5.47,5.89,5.89,0,0,0,9.24,0,9.75,9.75,0,0,0,0-11,5.85,5.85,0,0,0-9.21,0A8.82,8.82,0,0,0,898.42,64.76Z"/><path class="cls-2" d="M918.7,52.12h6.22l5.14,17.61,5.13-17.61h6.22L932.88,77.4h-5.64Z"/><path class="cls-2" d="M943.05,68.43a16.29,16.29,0,0,1,0-7.35,13.66,13.66,0,0,1,1.37-3.53,11.89,11.89,0,0,1,2.33-3,10.3,10.3,0,0,1,3.45-2.07,13,13,0,0,1,4.58-.78,12.23,12.23,0,0,1,5.31,1.13,9.63,9.63,0,0,1,3.76,3.09,13.64,13.64,0,0,1,2.72,8.28v2.57H949.15a6,6,0,0,0,1.75,4,5.66,5.66,0,0,0,4.23,1.65c2.58,0,4.63-1.3,6.12-3.89l5,1.83q-3.24,7.38-11.49,7.38A13,13,0,0,1,950.2,77a10.1,10.1,0,0,1-3.45-2.07,12.71,12.71,0,0,1-2.33-3A13.11,13.11,0,0,1,943.05,68.43Zm6.25-6.58h10.9c-.7-3.2-2.51-4.81-5.42-4.81a5.16,5.16,0,0,0-3.65,1.37A5.76,5.76,0,0,0,949.3,61.85Z"/><path class="cls-2" d="M971.11,77.4V52.12h6.22v4.12a10.35,10.35,0,0,1,3.33-3.35,7.86,7.86,0,0,1,4.15-1.19,10.42,10.42,0,0,1,3.07.51L986.72,58a5.18,5.18,0,0,0-2.62-.69,5.63,5.63,0,0,0-4.93,2.78c-1.22,1.86-1.82,4.64-1.82,8.35v9Z"/><path class="cls-2" d="M999.09,57.44V52.12H1003V45.8l6.22-3.93V52.11h6.66v5.32h-6.66V68.35a4.94,4.94,0,0,0,.8,3.16,3.13,3.13,0,0,0,2.5.95,5,5,0,0,0,2.4-.59l1.45,5a9.49,9.49,0,0,1-4.12.89,9.34,9.34,0,0,1-6.84-2.38q-2.42-2.37-2.41-7v-11Z"/><path class="cls-2" d="M1020.59,77.4V41.87h6.22V56.18a9,9,0,0,1,8-4.48,8.16,8.16,0,0,1,5.8,2,7.42,7.42,0,0,1,2.08,5.68v18h-6.22V61.56q0-4.52-3.78-4.52a4.94,4.94,0,0,0-4.21,2.55,12.75,12.75,0,0,0-1.69,7.12V77.39h-6.21Z"/><path class="cls-2" d="M1047.63,68.43a16.29,16.29,0,0,1,0-7.35,13.66,13.66,0,0,1,1.37-3.53,11.89,11.89,0,0,1,2.33-3,10.3,10.3,0,0,1,3.45-2.07,13,13,0,0,1,4.58-.78,12.23,12.23,0,0,1,5.31,1.13,9.63,9.63,0,0,1,3.76,3.09,13.64,13.64,0,0,1,2.72,8.28v2.57h-17.42a6,6,0,0,0,1.75,4,5.66,5.66,0,0,0,4.23,1.65c2.58,0,4.63-1.3,6.12-3.89l5,1.83q-3.24,7.38-11.49,7.38a13,13,0,0,1-4.58-.78,10.1,10.1,0,0,1-3.45-2.07,12.71,12.71,0,0,1-2.33-3A13.45,13.45,0,0,1,1047.63,68.43Zm6.26-6.58h10.9c-.7-3.2-2.51-4.81-5.42-4.81a5.18,5.18,0,0,0-3.65,1.37A5.76,5.76,0,0,0,1053.89,61.85Z"/><path class="cls-2" d="M1086.87,87.64V52.12h6.22v2.6a5.67,5.67,0,0,1,2.38-2.09,7.81,7.81,0,0,1,3.74-.91c3.68,0,6.51,1.16,8.53,3.49s3,5.52,3,9.57-1,7.22-3,9.55-4.85,3.49-8.53,3.49a8.44,8.44,0,0,1-3.51-.78,7,7,0,0,1-2.62-1.91V87.64Zm5.69-22.88a9.56,9.56,0,0,0,1.5,5.55,5.36,5.36,0,0,0,8.63,0,9.43,9.43,0,0,0,1.53-5.52,9.48,9.48,0,0,0-1.52-5.52,5,5,0,0,0-4.33-2.2,4.9,4.9,0,0,0-4.31,2.19A9.49,9.49,0,0,0,1092.56,64.76Z"/><path class="cls-2" d="M1113.55,70.13a7.22,7.22,0,0,1,3-6,12.52,12.52,0,0,1,7.8-2.26h4.22V60.74c0-2.46-1.47-3.7-4.4-3.7a4.11,4.11,0,0,0-4.35,2.9l-5.29-1.2a8.05,8.05,0,0,1,3.24-5.11,10.54,10.54,0,0,1,6.4-1.93q10.62,0,10.62,10.61V77.4h-5.12l-.64-3.21a9.51,9.51,0,0,1-7.77,3.6,7.65,7.65,0,0,1-5.56-2.05A7.35,7.35,0,0,1,1113.55,70.13Zm6.54-.1a2.36,2.36,0,0,0,.71,1.75,2.63,2.63,0,0,0,1.9.7,6.16,6.16,0,0,0,4.1-1.49,4.72,4.72,0,0,0,1.74-3.72v-.49h-4.15C1121.53,66.77,1120.09,67.86,1120.09,70Z"/><path class="cls-2" d="M1138,71l5-2.67c1,2.77,2.7,4.16,5.06,4.16,2.07,0,3.1-.89,3.1-2.69a2,2,0,0,0-1.34-1.91,7.82,7.82,0,0,0-1.39-.61,19.19,19.19,0,0,0-1.82-.7c-.91-.32-1.49-.54-1.75-.65a9.59,9.59,0,0,1-3.84-2.67,6.4,6.4,0,0,1-1.29-4.16,7,7,0,0,1,2.28-5.21,8,8,0,0,1,5.82-2.16,9.29,9.29,0,0,1,4.54,1.13,8.88,8.88,0,0,1,3.32,3L1152,59.26a5.21,5.21,0,0,0-4.18-2.21,2.46,2.46,0,0,0-1.64.57,1.91,1.91,0,0,0-.66,1.54c0,1,.79,1.84,2.39,2.45,1.11.41,2.42.87,3.94,1.39a14.71,14.71,0,0,1,2,1,6.54,6.54,0,0,1,1.61,1.21,6.07,6.07,0,0,1,1.55,4.12,8.21,8.21,0,0,1-2.48,6,8.68,8.68,0,0,1-6.43,2.46,10.09,10.09,0,0,1-6.15-2A12,12,0,0,1,1138,71Z"/><path class="cls-2" d="M1158.67,57.44V52.12h3.91V45.8l6.23-3.93V52.11h6.66v5.32h-6.66V68.35a4.94,4.94,0,0,0,.8,3.16,3.11,3.11,0,0,0,2.5.95,5,5,0,0,0,2.4-.59l1.44,5a10.62,10.62,0,0,1-11-1.49c-1.6-1.58-2.41-3.9-2.41-7v-11Z"/><path class="cls-2" d="M1190.43,77.4V74.83l12.62-16.09c1.83-2.24,2.74-4.34,2.74-6.32a4.69,4.69,0,0,0-1.12-3.35,4.15,4.15,0,0,0-3.2-1.2,4.22,4.22,0,0,0-3.1,1.18,5.58,5.58,0,0,0-1.48,3.37l-5.8-1.09a9.39,9.39,0,0,1,3.23-6.76,10.59,10.59,0,0,1,7.31-2.7A9.64,9.64,0,0,1,1212,52.18a13.42,13.42,0,0,1-3,8.21l-8.57,11h12.42v6h-22.42Z"/><path class="cls-2" d="M1217,59.83a32.79,32.79,0,0,1,.45-5.68,20.54,20.54,0,0,1,1.45-4.92,13.48,13.48,0,0,1,2.47-3.89A10.27,10.27,0,0,1,1225,42.8a12.57,12.57,0,0,1,4.89-.91,12,12,0,0,1,5.92,1.39,10.63,10.63,0,0,1,4,3.88,18.93,18.93,0,0,1,2.25,5.66,31.22,31.22,0,0,1,.74,7,34.17,34.17,0,0,1-.45,5.71,20.55,20.55,0,0,1-1.43,4.93,13.81,13.81,0,0,1-2.49,3.89,10.49,10.49,0,0,1-3.68,2.52,13.59,13.59,0,0,1-9.83,0,10.49,10.49,0,0,1-3.67-2.52,14.15,14.15,0,0,1-2.48-3.9,21.5,21.5,0,0,1-1.43-4.93A35.13,35.13,0,0,1,1217,59.83Zm6.22,0q0,12,6.7,12t6.74-12q0-12-6.74-11.95T1223.18,59.83Z"/><path class="cls-2" d="M1256,52.12h6.27L1268.15,68l5.51-15.85h6.22l-13,35.52h-6l4.36-11.86Z"/><path class="cls-2" d="M1281.3,68.43a16.29,16.29,0,0,1,0-7.35,14,14,0,0,1,1.37-3.53,12.13,12.13,0,0,1,2.33-3,10.3,10.3,0,0,1,3.45-2.07,13,13,0,0,1,4.58-.78,12.23,12.23,0,0,1,5.31,1.13,9.63,9.63,0,0,1,3.76,3.09,13.64,13.64,0,0,1,2.72,8.28v2.57H1287.4a6,6,0,0,0,1.75,4,5.66,5.66,0,0,0,4.23,1.65c2.58,0,4.63-1.3,6.12-3.89l5,1.83q-3.24,7.38-11.49,7.38a13,13,0,0,1-4.58-.78,10.1,10.1,0,0,1-3.45-2.07,13,13,0,0,1-2.33-3A13.11,13.11,0,0,1,1281.3,68.43Zm6.25-6.58h10.9c-.7-3.2-2.51-4.81-5.42-4.81a5.18,5.18,0,0,0-3.65,1.37A5.76,5.76,0,0,0,1287.55,61.85Z"/><path class="cls-2" d="M1307.26,70.13a7.22,7.22,0,0,1,3-6,12.52,12.52,0,0,1,7.8-2.26h4.22V60.74c0-2.46-1.47-3.7-4.4-3.7a4.13,4.13,0,0,0-4.36,2.9l-5.28-1.2a8.05,8.05,0,0,1,3.24-5.11,10.54,10.54,0,0,1,6.4-1.93q10.62,0,10.62,10.61V77.4h-5.12l-.64-3.21a9.51,9.51,0,0,1-7.77,3.6,7.65,7.65,0,0,1-5.56-2.05A7.39,7.39,0,0,1,1307.26,70.13Zm6.55-.1a2.36,2.36,0,0,0,.71,1.75,2.63,2.63,0,0,0,1.9.7,6.16,6.16,0,0,0,4.1-1.49,4.72,4.72,0,0,0,1.74-3.72v-.49h-4.15C1315.24,66.77,1313.81,67.86,1313.81,70Z"/><path class="cls-2" d="M1333.89,77.4V52.12h6.22v4.12a10.22,10.22,0,0,1,3.32-3.35,7.86,7.86,0,0,1,4.15-1.19,10.42,10.42,0,0,1,3.07.51L1349.5,58a5.21,5.21,0,0,0-2.63-.69,5.63,5.63,0,0,0-4.93,2.78c-1.22,1.86-1.82,4.64-1.82,8.35v9Z"/><path class="cls-2" d="M1351.61,71l5-2.67q1.52,4.16,5.06,4.16c2.07,0,3.1-.89,3.1-2.69a2,2,0,0,0-1.34-1.91,7.91,7.91,0,0,0-1.4-.61,17.16,17.16,0,0,0-1.82-.7c-.9-.32-1.48-.54-1.74-.65a9.52,9.52,0,0,1-3.84-2.67,6.4,6.4,0,0,1-1.29-4.16,7,7,0,0,1,2.28-5.21,8,8,0,0,1,5.81-2.16,9.33,9.33,0,0,1,4.55,1.13,9,9,0,0,1,3.32,3l-3.68,3.43a5.22,5.22,0,0,0-4.18-2.21,2.46,2.46,0,0,0-1.64.57,1.88,1.88,0,0,0-.66,1.54c0,1,.79,1.84,2.39,2.45,1.1.41,2.42.87,3.94,1.39a14.71,14.71,0,0,1,2,1,6.23,6.23,0,0,1,1.6,1.21,6.07,6.07,0,0,1,1.55,4.12,8.2,8.2,0,0,1-2.47,6,8.68,8.68,0,0,1-6.43,2.46,10.07,10.07,0,0,1-6.15-2A11.81,11.81,0,0,1,1351.61,71Z"/><path class="cls-2" d="M158.52,149.91a14.65,14.65,0,0,1,1.61-7,9.89,9.89,0,0,1,4.28-4.33,12.67,12.67,0,0,1,5.83-1.36q7,0,10.07,5.62A14.32,14.32,0,0,1,182,149.9a14.61,14.61,0,0,1-1.61,7,10.36,10.36,0,0,1-4.3,4.39,12.76,12.76,0,0,1-5.83,1.3q-6.9,0-10.08-5.61A14.29,14.29,0,0,1,158.52,149.91Zm4.69,0q0,4.2,2,6.33a6.67,6.67,0,0,0,5.05,2.13,6.51,6.51,0,0,0,5-2.13c1.36-1.42,2-3.53,2-6.33s-.68-4.89-2-6.31a6.54,6.54,0,0,0-5-2.13,6.71,6.71,0,0,0-5.05,2.13C163.87,145,163.21,147.13,163.21,149.91Z"/><path class="cls-2" d="M183.45,148.21v-3.77h2.77V140l4.41-2.78v7.25h4.72v3.77h-4.72v7.73a3.48,3.48,0,0,0,.58,2.24,2.19,2.19,0,0,0,1.77.68,3.62,3.62,0,0,0,1.7-.42l1,3.56a6.81,6.81,0,0,1-2.91.62,5.92,5.92,0,0,1-6.55-6.61v-7.8Z"/><path class="cls-2" d="M198.71,162.34V137.19h4.41v10.13a6.34,6.34,0,0,1,5.68-3.17,5.73,5.73,0,0,1,4.11,1.39,5.27,5.27,0,0,1,1.47,4v12.77H210V151.12c0-2.13-.88-3.19-2.67-3.19a3.5,3.5,0,0,0-3,1.81,9.14,9.14,0,0,0-1.2,5v7.56Z"/><path class="cls-2" d="M217.89,156a11.42,11.42,0,0,1,0-5.2,9.73,9.73,0,0,1,1-2.5,8.89,8.89,0,0,1,1.64-2.13,7.34,7.34,0,0,1,2.44-1.46,9.16,9.16,0,0,1,3.25-.55,8.59,8.59,0,0,1,3.75.79,6.62,6.62,0,0,1,2.66,2.19,9.56,9.56,0,0,1,1.92,5.86v1.82H222.2a4.2,4.2,0,0,0,1.24,2.86,4,4,0,0,0,3,1.18,4.85,4.85,0,0,0,4.34-2.77l3.56,1.3a8.2,8.2,0,0,1-8.14,5.23,9.24,9.24,0,0,1-3.25-.55,7.69,7.69,0,0,1-2.44-1.46,9,9,0,0,1-1.64-2.12A9.66,9.66,0,0,1,217.89,156Zm4.42-4.67H230q-.74-3.41-3.83-3.4a3.7,3.7,0,0,0-2.59,1A4.29,4.29,0,0,0,222.31,151.33Z"/><path class="cls-2" d="M237.81,162.34v-17.9h4.4v2.92a7.29,7.29,0,0,1,2.35-2.37,5.47,5.47,0,0,1,2.94-.84,7.28,7.28,0,0,1,2.16.36l-.82,4.08a3.63,3.63,0,0,0-1.85-.49,4,4,0,0,0-3.5,2A10.91,10.91,0,0,0,242.2,156v6.36Z"/><path class="cls-2" d="M258.56,153.4a9.64,9.64,0,0,1,2.28-6.61,8.19,8.19,0,0,1,6.48-2.63q6.06,0,8.14,5.11l-3.94,1.6a4.51,4.51,0,0,0-4.2-2.94,3.53,3.53,0,0,0-3.06,1.49,7.94,7.94,0,0,0,0,8,3.53,3.53,0,0,0,3.06,1.49c1.84,0,3.23-1,4.2-3l3.94,1.6q-2.08,5.11-8.14,5.11a8.19,8.19,0,0,1-6.48-2.62A9.64,9.64,0,0,1,258.56,153.4Z"/><path class="cls-2" d="M278.59,162.34V137.19H283v10.13a6.32,6.32,0,0,1,5.67-3.17,5.73,5.73,0,0,1,4.11,1.39,5.28,5.28,0,0,1,1.48,4v12.77h-4.41V151.12c0-2.13-.89-3.19-2.67-3.19a3.49,3.49,0,0,0-3,1.81,9.05,9.05,0,0,0-1.2,5v7.56Z"/><path class="cls-2" d="M297.29,157.2a5.11,5.11,0,0,1,2.11-4.26,8.9,8.9,0,0,1,5.53-1.6h3v-.78c0-1.75-1-2.63-3.11-2.63a2.92,2.92,0,0,0-3.08,2l-3.75-.85a5.65,5.65,0,0,1,2.29-3.62,7.56,7.56,0,0,1,4.54-1.35c5,0,7.52,2.49,7.52,7.5v10.68h-3.63l-.45-2.26a6.72,6.72,0,0,1-5.5,2.54,5.43,5.43,0,0,1-3.94-1.45A5.26,5.26,0,0,1,297.29,157.2Zm4.64-.07a1.71,1.71,0,0,0,.51,1.24,1.79,1.79,0,0,0,1.35.5,4.38,4.38,0,0,0,2.9-1.06,3.31,3.31,0,0,0,1.23-2.64v-.34H305C303,154.82,301.93,155.59,301.93,157.13Z"/><path class="cls-2" d="M316.18,162.34v-17.9h4.41v2.92a7.29,7.29,0,0,1,2.35-2.37,5.47,5.47,0,0,1,2.94-.84,7.33,7.33,0,0,1,2.16.36l-.82,4.08a3.63,3.63,0,0,0-1.85-.49,4,4,0,0,0-3.5,2,10.91,10.91,0,0,0-1.29,5.91v6.36Z"/><path class="cls-2" d="M330.08,141.32a2.84,2.84,0,1,1,4,0,2.9,2.9,0,0,1-4,0Zm-.2,21v-17.9h4.41v17.9Z"/><path class="cls-2" d="M336.49,148.21v-3.77h2.77V140l4.41-2.78v7.25h4.72v3.77h-4.72v7.73a3.48,3.48,0,0,0,.58,2.24,2.19,2.19,0,0,0,1.77.68,3.62,3.62,0,0,0,1.7-.42l1,3.56a6.81,6.81,0,0,1-2.91.62,5.92,5.92,0,0,1-6.55-6.61v-7.8Z"/><path class="cls-2" d="M350.26,157.2a5.1,5.1,0,0,1,2.1-4.26,8.9,8.9,0,0,1,5.53-1.6h3v-.78c0-1.75-1-2.63-3.11-2.63a2.92,2.92,0,0,0-3.08,2l-3.74-.85a5.58,5.58,0,0,1,2.29-3.62,7.5,7.5,0,0,1,4.53-1.35c5,0,7.52,2.49,7.52,7.5v10.68h-3.63l-.45-2.26a6.72,6.72,0,0,1-5.5,2.54,5.4,5.4,0,0,1-3.93-1.45A5.22,5.22,0,0,1,350.26,157.2Zm4.62-.07a1.71,1.71,0,0,0,.51,1.24,1.8,1.8,0,0,0,1.35.5,4.38,4.38,0,0,0,2.9-1.06,3.31,3.31,0,0,0,1.23-2.64v-.34h-2.93C355.9,154.82,354.88,155.59,354.88,157.13Z"/><path class="cls-2" d="M369.15,162.34V137.19h4.41v8.88a4.93,4.93,0,0,1,1.85-1.36,5.71,5.71,0,0,1,2.47-.56,7.53,7.53,0,0,1,6,2.47,11.81,11.81,0,0,1,0,13.53,7.57,7.57,0,0,1-6,2.47,5.7,5.7,0,0,1-2.65-.64,4.11,4.11,0,0,1-1.69-1.48v1.84Zm4-8.94a6.83,6.83,0,0,0,1.06,3.93,3.8,3.8,0,0,0,6.12,0,6.66,6.66,0,0,0,1.08-3.91,6.78,6.78,0,0,0-1.07-3.92,3.53,3.53,0,0,0-3.08-1.55,3.49,3.49,0,0,0-3,1.54A6.93,6.93,0,0,0,373.16,153.4Z"/><path class="cls-2" d="M389.49,162.34V137.19h4.41v25.15Z"/><path class="cls-2" d="M397.55,156a11.42,11.42,0,0,1,0-5.2,9.35,9.35,0,0,1,1-2.5,8.68,8.68,0,0,1,1.65-2.13,7.14,7.14,0,0,1,2.44-1.46,9.11,9.11,0,0,1,3.24-.55,8.64,8.64,0,0,1,3.76.79,6.76,6.76,0,0,1,2.66,2.19,9.56,9.56,0,0,1,1.92,5.86v1.82H401.85a4.24,4.24,0,0,0,1.24,2.86,4,4,0,0,0,3,1.18,4.85,4.85,0,0,0,4.34-2.77l3.55,1.3a8.19,8.19,0,0,1-8.14,5.23,9.18,9.18,0,0,1-3.24-.55,7.47,7.47,0,0,1-2.44-1.46,8.81,8.81,0,0,1-1.65-2.12A9.28,9.28,0,0,1,397.55,156Zm4.42-4.67h7.71c-.5-2.27-1.77-3.4-3.84-3.4a3.72,3.72,0,0,0-2.59,1A4.21,4.21,0,0,0,402,151.33Z"/><path class="cls-2" d="M425.39,169.6V144.44h4.41v1.85a4,4,0,0,1,1.68-1.49,5.46,5.46,0,0,1,2.66-.65,7.52,7.52,0,0,1,6,2.47,11.81,11.81,0,0,1,0,13.53,7.57,7.57,0,0,1-6,2.47,5.92,5.92,0,0,1-2.48-.55,5,5,0,0,1-1.85-1.36v8.87h-4.42Zm4-16.2a6.83,6.83,0,0,0,1.06,3.93,3.79,3.79,0,0,0,6.11,0,6.59,6.59,0,0,0,1.08-3.91,6.71,6.71,0,0,0-1.07-3.92,3.51,3.51,0,0,0-3.07-1.55,3.47,3.47,0,0,0-3,1.54A6.93,6.93,0,0,0,429.42,153.4Z"/><path class="cls-2" d="M445.81,162.34v-17.9h4.41v2.92a7.2,7.2,0,0,1,2.35-2.37,5.46,5.46,0,0,1,2.93-.84,7.34,7.34,0,0,1,2.17.36l-.82,4.08a3.63,3.63,0,0,0-1.85-.49,4,4,0,0,0-3.5,2,10.82,10.82,0,0,0-1.29,5.91v6.36Z"/><path class="cls-2" d="M458.62,153.4a9.16,9.16,0,0,1,2.51-6.66,9.69,9.69,0,0,1,13.23,0,10.15,10.15,0,0,1,0,13.25,9.79,9.79,0,0,1-13.27,0A9.21,9.21,0,0,1,458.62,153.4Zm4.63,0a6.19,6.19,0,0,0,1.21,3.88,4.16,4.16,0,0,0,6.53,0,6.29,6.29,0,0,0,1.19-3.89,6.19,6.19,0,0,0-1.21-3.88,4.12,4.12,0,0,0-6.51,0A6.18,6.18,0,0,0,463.25,153.4Z"/><path class="cls-2" d="M478.86,164a4.6,4.6,0,0,1,1.46-3.56,4.24,4.24,0,0,1-.92-2.76,4.18,4.18,0,0,1,2.22-3.77,5.65,5.65,0,0,1-1.26-3.69,5.58,5.58,0,0,1,1.87-4.37,6.8,6.8,0,0,1,4.7-1.68,7,7,0,0,1,3.29.78l3.37-1.77,1.74,2.91-2.54,1.28a5.59,5.59,0,0,1,.71,2.84,5.5,5.5,0,0,1-1.86,4.32,6.88,6.88,0,0,1-4.69,1.64,9.29,9.29,0,0,1-2.6-.4,1.49,1.49,0,0,0-.82,1.36c0,.87.54,1.32,1.64,1.32h3.66a7.07,7.07,0,0,1,4.6,1.38,4.71,4.71,0,0,1,1.69,3.88,5.24,5.24,0,0,1-1.24,3.52c-1.51,1.78-3.8,2.66-6.88,2.66a13.29,13.29,0,0,1-2.5-.22,9.47,9.47,0,0,1-2.21-.68,6.57,6.57,0,0,1-1.77-1.14,5.36,5.36,0,0,1-1.66-3.85Zm4.11-.35a2.1,2.1,0,0,0,1.07,1.89,5.53,5.53,0,0,0,2.91.66c2.49,0,3.73-.74,3.73-2.2,0-1.22-.95-1.84-2.88-1.84h-2.4a12,12,0,0,1-2-.14A3.15,3.15,0,0,0,483,163.63Zm1.5-13.43a2.36,2.36,0,0,0,.69,1.74,2.63,2.63,0,0,0,3.53,0,2.33,2.33,0,0,0,.69-1.74,2.48,2.48,0,0,0-.69-1.8,2.58,2.58,0,0,0-3.53,0A2.48,2.48,0,0,0,484.47,150.2Z"/><path class="cls-2" d="M497.74,162.34v-17.9h4.41v2.92a7.17,7.17,0,0,1,2.34-2.37,5.5,5.5,0,0,1,2.94-.84,7.28,7.28,0,0,1,2.16.36l-.81,4.08a3.69,3.69,0,0,0-1.86-.49,4,4,0,0,0-3.5,2,10.91,10.91,0,0,0-1.29,5.91v6.36Z"/><path class="cls-2" d="M510.39,157.2a5.1,5.1,0,0,1,2.1-4.26,8.9,8.9,0,0,1,5.53-1.6h3v-.78c0-1.75-1-2.63-3.11-2.63a2.93,2.93,0,0,0-3.08,2l-3.74-.85a5.65,5.65,0,0,1,2.29-3.62,7.5,7.5,0,0,1,4.53-1.35c5,0,7.52,2.49,7.52,7.5v10.68h-3.63l-.44-2.26a6.75,6.75,0,0,1-5.51,2.54,5.4,5.4,0,0,1-3.93-1.45A5.19,5.19,0,0,1,510.39,157.2Zm4.63-.07a1.7,1.7,0,0,0,.5,1.24,1.82,1.82,0,0,0,1.35.5,4.38,4.38,0,0,0,2.9-1.06,3.31,3.31,0,0,0,1.23-2.64v-.34h-2.93C516,154.82,515,155.59,515,157.13Z"/><path class="cls-2" d="M529.27,162.34v-17.9h4.41v2.88c1.4-2.12,3.11-3.17,5.15-3.17a5.3,5.3,0,0,1,3.13.95,5,5,0,0,1,1.88,2.74q2.1-3.69,5.47-3.69a5.16,5.16,0,0,1,3.9,1.46,5.6,5.6,0,0,1,1.43,4v12.67h-4.41V150.4c0-1.66-.74-2.48-2.2-2.48a3.16,3.16,0,0,0-2.81,2,11.75,11.75,0,0,0-1.06,5.5v7h-4.41V150.4c0-1.66-.73-2.48-2.2-2.48a3.15,3.15,0,0,0-2.8,2.05,12.78,12.78,0,0,0-1.06,5.79v6.57h-4.42Z"/><path class="cls-2" d="M557.62,157.8l3.5-1.89q1.07,3,3.59,3c1.46,0,2.2-.64,2.2-1.91a1.43,1.43,0,0,0-1-1.36,4.89,4.89,0,0,0-1-.44c-.22-.1-.64-.27-1.29-.5l-1.24-.46a6.87,6.87,0,0,1-2.73-1.88,4.54,4.54,0,0,1-.91-2.95,5,5,0,0,1,1.61-3.7,5.74,5.74,0,0,1,4.13-1.53,6.71,6.71,0,0,1,3.22.8,6.26,6.26,0,0,1,2.35,2.12l-2.61,2.42a3.7,3.7,0,0,0-3-1.56,1.76,1.76,0,0,0-1.17.4,1.38,1.38,0,0,0-.46,1.1c0,.72.57,1.31,1.69,1.73.79.29,1.72.63,2.8,1a10,10,0,0,1,1.38.74,4.71,4.71,0,0,1,1.14.86,4.3,4.3,0,0,1,1.1,2.92,5.83,5.83,0,0,1-1.75,4.23,6.13,6.13,0,0,1-4.55,1.74,7.09,7.09,0,0,1-4.35-1.4A8.11,8.11,0,0,1,557.62,157.8Z"/><path class="cls-2" d="M472.19,193.57v-4.83l7.31-4.27h1.93v24.87H477V190.73Z"/><path class="cls-2" d="M485.88,196.9a23.2,23.2,0,0,1,.33-4,15.43,15.43,0,0,1,1-3.48,9.8,9.8,0,0,1,1.75-2.76,7.5,7.5,0,0,1,2.59-1.79,8.76,8.76,0,0,1,3.47-.65,8.65,8.65,0,0,1,4.19,1,7.62,7.62,0,0,1,2.86,2.75,13.47,13.47,0,0,1,1.6,4,21.89,21.89,0,0,1,.52,5,24.29,24.29,0,0,1-.31,4,14.59,14.59,0,0,1-1,3.49,10,10,0,0,1-1.76,2.75,7.45,7.45,0,0,1-2.61,1.79,9.64,9.64,0,0,1-7,0,7.36,7.36,0,0,1-2.6-1.79,9.8,9.8,0,0,1-1.75-2.76,14.4,14.4,0,0,1-1-3.49A24.46,24.46,0,0,1,485.88,196.9Zm4.41,0q0,8.47,4.76,8.47t4.76-8.47q0-8.46-4.76-8.46C491.87,188.45,490.29,191.26,490.29,196.9Z"/><path class="cls-2" d="M509.09,193.87a5.5,5.5,0,0,1-1.7-4.07,5.31,5.31,0,0,1,1.69-4,6.32,6.32,0,0,1,8.44,0,5.38,5.38,0,0,1,1.71,4.06,5.31,5.31,0,0,1-1.74,4,5.92,5.92,0,0,1-4.22,1.63A5.62,5.62,0,0,1,509.09,193.87Zm.7,14.76,19.26-25.5,2.57,2-19.28,25.54Zm1.33-18.75a2.35,2.35,0,0,0,.55,1.59,2.22,2.22,0,0,0,3.83-1.59,2.09,2.09,0,0,0-.6-1.57,2.05,2.05,0,0,0-1.61-.62,2.07,2.07,0,0,0-1.62.62A2.23,2.23,0,0,0,511.12,189.88ZM523.69,208a5.24,5.24,0,0,1-1.69-4,5.52,5.52,0,0,1,1.69-4.09,5.73,5.73,0,0,1,4.21-1.67,5.84,5.84,0,0,1,4.2,1.63,5.62,5.62,0,0,1,0,8.09,5.87,5.87,0,0,1-4.2,1.64A6,6,0,0,1,523.69,208Zm2-4.08a2.31,2.31,0,0,0,.56,1.58,2.13,2.13,0,0,0,1.62.61,2.09,2.09,0,0,0,1.59-.61,2.18,2.18,0,0,0,.61-1.58,2.12,2.12,0,0,0-.61-1.57,2,2,0,0,0-1.59-.62,2.07,2.07,0,0,0-1.62.62A2.22,2.22,0,0,0,525.72,204Z"/><path class="cls-2" d="M1041.72,367.32q0-6,3.45-9.37a11.61,11.61,0,0,1,8.38-3.35,10.33,10.33,0,0,1,6.63,2.12,10.73,10.73,0,0,1,3.71,5.74l-4.21,1.1c-1.29-3.12-3.33-4.69-6.13-4.69a6.59,6.59,0,0,0-5.19,2.2,9.13,9.13,0,0,0-1.93,6.25c0,2.76.63,4.87,1.9,6.31a6.46,6.46,0,0,0,5.12,2.16,5.47,5.47,0,0,0,3.88-1.36,5.23,5.23,0,0,0,1.7-3.38h-4.62v-3.83h9.1v12.53h-3.89l-.38-2.67a6.75,6.75,0,0,1-6,2.95,11.08,11.08,0,0,1-8.14-3.33Q1041.72,373.37,1041.72,367.32Z"/><path class="cls-2" d="M1067.91,379.76V354.61h4.41v25.15Z"/><path class="cls-2" d="M1075.64,370.81a9.2,9.2,0,0,1,2.51-6.67,8.78,8.78,0,0,1,6.59-2.59,8.69,8.69,0,0,1,6.64,2.64,10.15,10.15,0,0,1,0,13.25,9.79,9.79,0,0,1-13.27,0A9.2,9.2,0,0,1,1075.64,370.81Zm4.63,0a6.25,6.25,0,0,0,1.2,3.88,4.16,4.16,0,0,0,6.53,0,6.94,6.94,0,0,0,0-7.77,4.13,4.13,0,0,0-6.52,0A6.22,6.22,0,0,0,1080.27,370.81Z"/><path class="cls-2" d="M1097.3,379.76V354.61h4.4v8.88a5.05,5.05,0,0,1,1.86-1.36,5.72,5.72,0,0,1,2.47-.57,7.51,7.51,0,0,1,6,2.48,11.79,11.79,0,0,1,0,13.52,7.53,7.53,0,0,1-6,2.48,5.52,5.52,0,0,1-2.64-.65,4,4,0,0,1-1.69-1.47v1.84Zm4-8.95a6.77,6.77,0,0,0,1.06,3.92,3.81,3.81,0,0,0,6.12,0,6.7,6.7,0,0,0,1.08-3.91,6.78,6.78,0,0,0-1.07-3.92,3.53,3.53,0,0,0-3.08-1.55,3.49,3.49,0,0,0-3,1.54A7,7,0,0,0,1101.32,370.81Z"/><path class="cls-2" d="M1116.19,374.61a5.08,5.08,0,0,1,2.1-4.26,8.9,8.9,0,0,1,5.53-1.6h3V368c0-1.75-1-2.62-3.11-2.62a2.91,2.91,0,0,0-3.08,2.05l-3.75-.85a5.67,5.67,0,0,1,2.3-3.62,7.42,7.42,0,0,1,4.53-1.36q7.51,0,7.52,7.51v10.68h-3.63l-.45-2.27a6.7,6.7,0,0,1-5.5,2.55,5.48,5.48,0,0,1-3.94-1.45A5.24,5.24,0,0,1,1116.19,374.61Zm4.62-.07a1.63,1.63,0,0,0,.51,1.24,1.83,1.83,0,0,0,1.35.5,4.38,4.38,0,0,0,2.9-1.06,3.32,3.32,0,0,0,1.23-2.64v-.35h-2.94C1121.83,372.23,1120.81,373,1120.81,374.54Z"/><path class="cls-2" d="M1135,379.76V354.61h4.41v25.15Z"/><path class="cls-2" d="M1041.55,406.33a10,10,0,0,1,2.14-6.77,7.59,7.59,0,0,1,6-2.47,5.78,5.78,0,0,1,2.48.56,5.21,5.21,0,0,1,1.85,1.36v-8.88h4.41v25.16h-4.41v-1.85a4,4,0,0,1-1.68,1.48,5.67,5.67,0,0,1-2.65.64,7.59,7.59,0,0,1-6-2.47A10,10,0,0,1,1041.55,406.33Zm4.64,0a6.65,6.65,0,0,0,1.09,3.9,3.54,3.54,0,0,0,3.06,1.57,3.48,3.48,0,0,0,3.05-1.54,6.85,6.85,0,0,0,1.06-3.93,6.76,6.76,0,0,0-1.06-3.91,3.47,3.47,0,0,0-3-1.55,3.63,3.63,0,0,0-2.29.76,4.56,4.56,0,0,0-1.41,2A7.55,7.55,0,0,0,1046.19,406.33Z"/><path class="cls-2" d="M1062.22,408.93a11.92,11.92,0,0,1-.3-2.6,10.87,10.87,0,0,1,.3-2.6,10.1,10.1,0,0,1,1-2.5,9.09,9.09,0,0,1,1.64-2.13,7.29,7.29,0,0,1,2.45-1.46,9.07,9.07,0,0,1,3.24-.55,8.59,8.59,0,0,1,3.75.79,6.62,6.62,0,0,1,2.66,2.19,9.57,9.57,0,0,1,1.93,5.86v1.82h-12.33a4.2,4.2,0,0,0,1.24,2.86,4,4,0,0,0,3,1.18,4.85,4.85,0,0,0,4.34-2.77l3.56,1.3a8.2,8.2,0,0,1-8.14,5.23,9.18,9.18,0,0,1-3.24-.55,7.35,7.35,0,0,1-2.45-1.46,8.83,8.83,0,0,1-1.64-2.12A9.66,9.66,0,0,1,1062.22,408.93Zm4.42-4.66h7.73q-.75-3.4-3.84-3.4a3.73,3.73,0,0,0-2.58,1A4.08,4.08,0,0,0,1066.64,404.27Z"/><path class="cls-2" d="M1079.42,397.37h4.41l3.64,12.47,3.63-12.47h4.41l-6,17.9h-4Z"/><path class="cls-2" d="M1096.66,408.93a11.92,11.92,0,0,1-.3-2.6,11.4,11.4,0,0,1,.3-2.6,10.1,10.1,0,0,1,1-2.5,8.87,8.87,0,0,1,1.65-2.13,7.14,7.14,0,0,1,2.44-1.46,9.07,9.07,0,0,1,3.24-.55,8.64,8.64,0,0,1,3.76.79,6.66,6.66,0,0,1,2.65,2.19,9.57,9.57,0,0,1,1.93,5.86v1.82H1101a4.24,4.24,0,0,0,1.24,2.86,4,4,0,0,0,3,1.18,4.85,4.85,0,0,0,4.34-2.77l3.56,1.3a8.2,8.2,0,0,1-8.14,5.23,9.18,9.18,0,0,1-3.24-.55,7.2,7.2,0,0,1-2.44-1.46,8.62,8.62,0,0,1-1.65-2.12A9.66,9.66,0,0,1,1096.66,408.93Zm4.42-4.66h7.73q-.75-3.4-3.84-3.4a3.68,3.68,0,0,0-2.57,1A4,4,0,0,0,1101.08,404.27Z"/><path class="cls-2" d="M1116.46,415.27V390.12h4.41v25.15Z"/><path class="cls-2" d="M1124.2,406.33a9.16,9.16,0,0,1,2.51-6.66,9.68,9.68,0,0,1,13.22,0,10.12,10.12,0,0,1,0,13.25,9.79,9.79,0,0,1-13.27,0A9.21,9.21,0,0,1,1124.2,406.33Zm4.63,0a6.31,6.31,0,0,0,1.19,3.88,4.16,4.16,0,0,0,6.53,0,6.89,6.89,0,0,0,0-7.77,4.13,4.13,0,0,0-6.52,0A6.24,6.24,0,0,0,1128.83,406.33Z"/><path class="cls-2" d="M1145.85,422.53V397.37h4.41v1.85a4,4,0,0,1,1.68-1.49,5.42,5.42,0,0,1,2.65-.65,7.52,7.52,0,0,1,6,2.47,10,10,0,0,1,2.13,6.77,10.08,10.08,0,0,1-2.13,6.76,7.57,7.57,0,0,1-6,2.47,5.92,5.92,0,0,1-2.48-.55,4.9,4.9,0,0,1-1.85-1.36v8.88h-4.41Zm4-16.2a6.83,6.83,0,0,0,1.06,3.93,3.79,3.79,0,0,0,6.11,0,6.59,6.59,0,0,0,1.08-3.91,6.66,6.66,0,0,0-1.07-3.91,3.8,3.8,0,0,0-6.12,0A6.93,6.93,0,0,0,1149.88,406.33Z"/><path class="cls-2" d="M1166.22,415.27v-17.9h4.41v2.88c1.41-2.12,3.12-3.17,5.16-3.17a5.32,5.32,0,0,1,3.13.95,5.07,5.07,0,0,1,1.89,2.74c1.39-2.46,3.22-3.69,5.47-3.69a5.16,5.16,0,0,1,3.9,1.46,5.6,5.6,0,0,1,1.43,4v12.67h-4.41V403.35c0-1.66-.74-2.48-2.2-2.48a3.16,3.16,0,0,0-2.81,2,11.75,11.75,0,0,0-1.06,5.5v7h-4.41V403.35c0-1.66-.73-2.48-2.2-2.48a3.15,3.15,0,0,0-2.8,2.05,12.81,12.81,0,0,0-1.06,5.79v6.58h-4.44Z"/><path class="cls-2" d="M1195.07,408.93a11.92,11.92,0,0,1-.3-2.6,10.87,10.87,0,0,1,.3-2.6,10.1,10.1,0,0,1,1-2.5,9.09,9.09,0,0,1,1.64-2.13,7.34,7.34,0,0,1,2.44-1.46,9.16,9.16,0,0,1,3.25-.55,8.59,8.59,0,0,1,3.75.79,6.62,6.62,0,0,1,2.66,2.19,9.56,9.56,0,0,1,1.92,5.86v1.82h-12.32a4.2,4.2,0,0,0,1.24,2.86,4,4,0,0,0,3,1.18A4.85,4.85,0,0,0,1208,409l3.56,1.3a8.2,8.2,0,0,1-8.14,5.23,9.24,9.24,0,0,1-3.25-.55,7.3,7.3,0,0,1-2.44-1.46,8.83,8.83,0,0,1-1.64-2.12A9.66,9.66,0,0,1,1195.07,408.93Zm4.42-4.66h7.73q-.75-3.4-3.84-3.4a3.73,3.73,0,0,0-2.58,1A4.08,4.08,0,0,0,1199.49,404.27Z"/><path class="cls-2" d="M1214.94,415.27v-17.9h4.41v2.88a6.53,6.53,0,0,1,5.54-3.17,5.61,5.61,0,0,1,4,1.41,5.28,5.28,0,0,1,1.49,4v12.77H1226V403.79c0-2-.85-2.94-2.57-2.94a3.39,3.39,0,0,0-2.91,2,10.5,10.5,0,0,0-1.16,5.29v7.14Z"/><path class="cls-2" d="M1232.7,401.14v-3.77h2.78V392.9l4.4-2.78v7.25h4.72v3.77h-4.72v7.73a3.48,3.48,0,0,0,.58,2.24,2.19,2.19,0,0,0,1.77.68,3.66,3.66,0,0,0,1.71-.42l1,3.56a6.78,6.78,0,0,1-2.91.62,5.92,5.92,0,0,1-6.55-6.61v-7.8Z"/><path class="cls-2" d="M1058.32,454.33V452l10.47-18h4.69v16.12h2.84v4.25h-2.84v4.49h-4.41v-4.49Zm5.5-4.25h5.26V440.6Z"/><path class="cls-2" d="M1078.93,452.23l4.24-.78q.69,3.41,3.73,3.4a3.39,3.39,0,0,0,2.75-1.12,4.84,4.84,0,0,0,.94-3.21,4.46,4.46,0,0,0-1-3.15,3.71,3.71,0,0,0-2.9-1.08,5.88,5.88,0,0,0-4.41,2.19l-2.81-.56,1.4-14h12.73v4.24h-9.12l-.57,5.06a6.74,6.74,0,0,1,3.52-.92,7.17,7.17,0,0,1,5.63,2.16,8.71,8.71,0,0,1,1.94,6,9.64,9.64,0,0,1-1,4.44,7.28,7.28,0,0,1-2.83,3,8.16,8.16,0,0,1-4.29,1.11,8.06,8.06,0,0,1-5.45-1.92A7.36,7.36,0,0,1,1078.93,452.23Z"/><path class="cls-2" d="M1098.87,443.36a5.5,5.5,0,0,1-1.7-4.07,5.31,5.31,0,0,1,1.69-4,6.32,6.32,0,0,1,8.44,0,5.63,5.63,0,0,1,0,8.11,5.92,5.92,0,0,1-4.22,1.63A5.69,5.69,0,0,1,1098.87,443.36Zm.71,14.76,19.26-25.5,2.57,2-19.28,25.54Zm1.32-18.76a2.31,2.31,0,0,0,.55,1.58,2.23,2.23,0,0,0,3.84-1.58,2.11,2.11,0,0,0-2.22-2.19,2.07,2.07,0,0,0-1.62.62A2.23,2.23,0,0,0,1100.9,439.36Zm12.57,18.15a5.27,5.27,0,0,1-1.7-4,5.5,5.5,0,0,1,1.7-4.08,5.73,5.73,0,0,1,4.21-1.67,5.84,5.84,0,0,1,4.2,1.63,5.6,5.6,0,0,1,0,8.08,5.82,5.82,0,0,1-4.2,1.65A6,6,0,0,1,1113.47,457.51Zm2-4.09a2.32,2.32,0,0,0,.56,1.59,2.16,2.16,0,0,0,1.62.61,2.12,2.12,0,0,0,1.59-.61,2.19,2.19,0,0,0,.61-1.59,2.12,2.12,0,0,0-.61-1.56,2,2,0,0,0-1.59-.62,2,2,0,0,0-1.62.62A2.23,2.23,0,0,0,1115.5,453.42Z"/><path class="cls-2" d="M163.19,365.58V350.16h4.63v15.49c0,3.6,1.56,5.41,4.66,5.41s4.64-1.81,4.64-5.41V350.16h4.63v15.42q0,4.74-2.46,7.23a10.53,10.53,0,0,1-13.62,0C164,371.14,163.19,368.74,163.19,365.58Z"/><path class="cls-2" d="M185.1,374.42a2.94,2.94,0,1,1,2,.81A2.72,2.72,0,0,1,185.1,374.42Z"/><path class="cls-2" d="M191.67,368.36,195.4,366q1.42,5,4.93,5,3.24,0,3.24-3.24,0-1.9-3.69-3.47l-1.31-.57c-.38-.19-.82-.42-1.31-.7a8.74,8.74,0,0,1-1.29-.85,9.28,9.28,0,0,1-1.11-1,6,6,0,0,1-.92-1.26,5.77,5.77,0,0,1-.56-1.5,6.37,6.37,0,0,1-.21-1.67v-.14a6.61,6.61,0,0,1,6.78-6.75,7.38,7.38,0,0,1,7.19,4.52l-3.74,2.37c-.88-1.75-2-2.63-3.45-2.63a2.32,2.32,0,0,0-1.7.65,2.15,2.15,0,0,0-.67,1.63q0,1.94,3.73,3.7l1.33.61c.35.16.8.39,1.34.69a10.78,10.78,0,0,1,1.33.84,9.67,9.67,0,0,1,1.13,1,5.72,5.72,0,0,1,1,1.21,6.57,6.57,0,0,1,.58,1.41,6,6,0,0,1,.23,1.71,7.48,7.48,0,0,1-2.15,5.67,8,8,0,0,1-5.82,2.06,8.37,8.37,0,0,1-5.61-2A8.89,8.89,0,0,1,191.67,368.36Z"/><path class="cls-2" d="M210.47,374.42a2.94,2.94,0,1,1,2,.81A2.72,2.72,0,0,1,210.47,374.42Z"/><path class="cls-2" d="M226.54,382.27V357.12H231V359a4.08,4.08,0,0,1,1.68-1.48,5.44,5.44,0,0,1,2.66-.66,7.53,7.53,0,0,1,6,2.48,11.79,11.79,0,0,1,0,13.52,7.54,7.54,0,0,1-6,2.48,6.07,6.07,0,0,1-2.48-.55,5,5,0,0,1-1.85-1.36v8.87h-4.42Zm4-16.19a6.77,6.77,0,0,0,1.06,3.92,3.46,3.46,0,0,0,3.05,1.53,3.51,3.51,0,0,0,3.06-1.55,6.7,6.7,0,0,0,1.08-3.91,6.78,6.78,0,0,0-1.07-3.92,3.51,3.51,0,0,0-3.07-1.55,3.47,3.47,0,0,0-3.05,1.54A6.8,6.8,0,0,0,230.57,366.08Z"/><path class="cls-2" d="M247,375v-17.9h4.41v2.92a7.23,7.23,0,0,1,2.35-2.38,5.53,5.53,0,0,1,2.93-.84,7.31,7.31,0,0,1,2.16.37l-.81,4.08a3.66,3.66,0,0,0-1.86-.49,4,4,0,0,0-3.5,2,10.9,10.9,0,0,0-1.28,5.91V375Z"/><path class="cls-2" d="M259.77,366.08a9.2,9.2,0,0,1,2.51-6.67,8.78,8.78,0,0,1,6.59-2.59,8.69,8.69,0,0,1,6.64,2.64,10.15,10.15,0,0,1,0,13.25,9.79,9.79,0,0,1-13.27,0A9.2,9.2,0,0,1,259.77,366.08Zm4.63,0a6.19,6.19,0,0,0,1.21,3.88,4.15,4.15,0,0,0,6.52,0,6.87,6.87,0,0,0,0-7.77,4.12,4.12,0,0,0-6.51,0A6.22,6.22,0,0,0,264.4,366.08Z"/><path class="cls-2" d="M280,376.66a4.59,4.59,0,0,1,1.46-3.56,4.24,4.24,0,0,1-.92-2.76,4.17,4.17,0,0,1,2.22-3.77,6,6,0,0,1,.61-8.07,6.85,6.85,0,0,1,4.7-1.68,7,7,0,0,1,3.29.79l3.37-1.78,1.74,2.92L293.94,360a5.66,5.66,0,0,1,.71,2.85,5.46,5.46,0,0,1-1.86,4.31,6.84,6.84,0,0,1-4.69,1.65,9.29,9.29,0,0,1-2.6-.4,1.48,1.48,0,0,0-.82,1.35c0,.88.54,1.33,1.64,1.33H290a7.07,7.07,0,0,1,4.6,1.38,4.71,4.71,0,0,1,1.69,3.88,5.24,5.24,0,0,1-1.24,3.52q-2.26,2.66-6.88,2.66a13.29,13.29,0,0,1-2.5-.22,10,10,0,0,1-2.21-.68,6.57,6.57,0,0,1-1.77-1.14,4.72,4.72,0,0,1-1.18-1.67A4.57,4.57,0,0,1,280,376.66Zm4.11-.35a2.08,2.08,0,0,0,1.07,1.89,5.53,5.53,0,0,0,2.91.66c2.49,0,3.73-.74,3.73-2.2,0-1.22-1-1.85-2.88-1.85h-2.4a12,12,0,0,1-2-.13A3,3,0,0,0,284.12,376.31Zm1.48-13.42a2.36,2.36,0,0,0,.69,1.74,2.64,2.64,0,0,0,3.54,0,2.33,2.33,0,0,0,.69-1.74,2.48,2.48,0,0,0-.69-1.8,2.36,2.36,0,0,0-1.76-.7,2.39,2.39,0,0,0-1.78.7A2.48,2.48,0,0,0,285.6,362.89Z"/><path class="cls-2" d="M298.89,375v-17.9h4.41v2.92a7.3,7.3,0,0,1,2.34-2.38,5.56,5.56,0,0,1,2.94-.84,7.31,7.31,0,0,1,2.16.37l-.81,4.08a3.69,3.69,0,0,0-1.86-.49,4,4,0,0,0-3.5,2,10.89,10.89,0,0,0-1.29,5.91V375Z"/><path class="cls-2" d="M311.53,369.88a5.08,5.08,0,0,1,2.1-4.26,8.9,8.9,0,0,1,5.53-1.6h3v-.79c0-1.75-1-2.62-3.11-2.62a2.92,2.92,0,0,0-3.08,2.05l-3.75-.85a5.63,5.63,0,0,1,2.3-3.62,7.44,7.44,0,0,1,4.53-1.36q7.52,0,7.52,7.51V375h-3.63l-.45-2.27a6.7,6.7,0,0,1-5.5,2.55,5.48,5.48,0,0,1-3.94-1.45A5.24,5.24,0,0,1,311.53,369.88Zm4.63-.07a1.71,1.71,0,0,0,.51,1.24,1.84,1.84,0,0,0,1.35.5,4.38,4.38,0,0,0,2.9-1.06,3.32,3.32,0,0,0,1.23-2.64v-.34h-2.93C317.18,367.51,316.16,368.28,316.16,369.81Z"/><path class="cls-2" d="M330.38,375v-17.9h4.41V360q2.1-3.18,5.16-3.18a5.35,5.35,0,0,1,3.13,1,4.9,4.9,0,0,1,1.87,2.74c1.41-2.46,3.23-3.7,5.47-3.7a5.15,5.15,0,0,1,3.9,1.47,5.54,5.54,0,0,1,1.43,4.05V375h-4.41V363.08c0-1.65-.73-2.47-2.2-2.47a3.13,3.13,0,0,0-2.8,2,11.62,11.62,0,0,0-1.06,5.5V375h-4.41V363.08c0-1.65-.74-2.47-2.2-2.47a3.16,3.16,0,0,0-2.81,2.05,12.92,12.92,0,0,0-1.06,5.79V375h-4.42Z"/><path class="cls-2" d="M358.73,370.49l3.5-1.89c.72,2,1.91,2.95,3.59,2.95,1.47,0,2.2-.64,2.2-1.92a1.42,1.42,0,0,0-.95-1.35,5.15,5.15,0,0,0-1-.44c-.22-.1-.65-.27-1.29-.5l-1.25-.46a6.9,6.9,0,0,1-2.72-1.88,4.54,4.54,0,0,1-.91-2.95,5,5,0,0,1,1.61-3.7,5.73,5.73,0,0,1,4.12-1.53,6.71,6.71,0,0,1,3.22.8,6.19,6.19,0,0,1,2.35,2.12l-2.6,2.42a3.73,3.73,0,0,0-3-1.56,1.76,1.76,0,0,0-1.16.4,1.37,1.37,0,0,0-.46,1.1c0,.72.56,1.31,1.69,1.73.78.29,1.71.62,2.8,1a10,10,0,0,1,1.38.74,4.46,4.46,0,0,1,1.14.86,4.34,4.34,0,0,1,1.09,2.92,5.83,5.83,0,0,1-1.75,4.23,6.13,6.13,0,0,1-4.55,1.74,7.14,7.14,0,0,1-4.35-1.4A8.39,8.39,0,0,1,358.73,370.49Z"/><path class="cls-2" d="M295.46,403.3v-4.83l7.31-4.27h1.93v24.87h-4.41V400.46Z"/><path class="cls-2" d="M308.51,411.18a8.4,8.4,0,0,1,1.21-4.34l7.19-12.93h5L316.48,403H317a7.64,7.64,0,0,1,5.7,2.32,8,8,0,0,1,2.28,5.83,7.86,7.86,0,0,1-2.34,5.84,8.65,8.65,0,0,1-11.81,0A7.75,7.75,0,0,1,308.51,411.18Zm4.4,0A3.8,3.8,0,0,0,314,414a4,4,0,0,0,5.51,0,3.86,3.86,0,0,0,1.09-2.83,3.86,3.86,0,1,0-7.71,0Z"/><path class="cls-2" d="M328.84,403.6a5.51,5.51,0,0,1-1.71-4.07,5.33,5.33,0,0,1,1.7-4,6.31,6.31,0,0,1,8.43,0,5.41,5.41,0,0,1,1.72,4.06,5.35,5.35,0,0,1-1.74,4.05,5.94,5.94,0,0,1-4.22,1.63A5.68,5.68,0,0,1,328.84,403.6Zm.71,14.76,19.26-25.5,2.57,2L332.1,420.42Zm1.33-18.76a2.35,2.35,0,0,0,.55,1.59,2.22,2.22,0,0,0,3.83-1.59,2.09,2.09,0,0,0-.6-1.57,2.41,2.41,0,0,0-3.23,0A2.26,2.26,0,0,0,330.88,399.6Zm12.57,18.15a5.25,5.25,0,0,1-1.7-4,5.53,5.53,0,0,1,1.7-4.09,5.71,5.71,0,0,1,4.21-1.67,5.84,5.84,0,0,1,4.2,1.63,5.36,5.36,0,0,1,1.72,4,5.42,5.42,0,0,1-1.72,4,6.27,6.27,0,0,1-8.41,0Zm2-4.09a2.36,2.36,0,0,0,.55,1.59,2.16,2.16,0,0,0,1.63.61,2.1,2.1,0,0,0,1.59-.61,2.19,2.19,0,0,0,.61-1.59,2.12,2.12,0,0,0-.61-1.56,2,2,0,0,0-1.59-.62,2,2,0,0,0-1.63.62A2.27,2.27,0,0,0,345.47,413.66Z"/><path class="cls-2" d="M207.84,710.77q0-6,3.45-9.37a11.6,11.6,0,0,1,8.38-3.34,10.38,10.38,0,0,1,6.63,2.11,10.79,10.79,0,0,1,3.71,5.75L225.8,707q-1.94-4.68-6.13-4.68a6.55,6.55,0,0,0-5.19,2.19,9.17,9.17,0,0,0-1.93,6.25q0,4.15,1.9,6.31a6.47,6.47,0,0,0,5.12,2.17,5.47,5.47,0,0,0,3.88-1.36,5.28,5.28,0,0,0,1.7-3.39h-4.62v-3.83h9.1v12.54h-3.89l-.38-2.67a6.77,6.77,0,0,1-6,2.94,11.07,11.07,0,0,1-8.14-3.32C209,717.92,207.84,714.8,207.84,710.77Z"/><path class="cls-2" d="M234.06,723.21V698.06h4.41v25.15Z"/><path class="cls-2" d="M241.83,714.26a9.18,9.18,0,0,1,2.51-6.66,9.69,9.69,0,0,1,13.23,0,10.15,10.15,0,0,1,0,13.25,9.79,9.79,0,0,1-13.27,0A9.18,9.18,0,0,1,241.83,714.26Zm4.63,0a6.19,6.19,0,0,0,1.21,3.88,4.16,4.16,0,0,0,6.53,0,6.89,6.89,0,0,0,0-7.77,4.11,4.11,0,0,0-6.51,0A6.13,6.13,0,0,0,246.46,714.26Z"/><path class="cls-2" d="M263.53,723.21V698.06h4.41v8.87a5.09,5.09,0,0,1,1.85-1.36,5.78,5.78,0,0,1,2.48-.56,7.55,7.55,0,0,1,6,2.47,11.81,11.81,0,0,1,0,13.53,7.57,7.57,0,0,1-6,2.47,5.74,5.74,0,0,1-2.66-.64,4,4,0,0,1-1.68-1.47v1.84Zm4-9a6.83,6.83,0,0,0,1.06,3.93,3.48,3.48,0,0,0,3.05,1.53,3.53,3.53,0,0,0,3.06-1.55,7.67,7.67,0,0,0,0-7.83,3.5,3.5,0,0,0-3.07-1.56,3.45,3.45,0,0,0-3.05,1.55A6.87,6.87,0,0,0,267.55,714.26Z"/><path class="cls-2" d="M282.44,718.06a5.11,5.11,0,0,1,2.11-4.26,8.88,8.88,0,0,1,5.53-1.6h3v-.78c0-1.75-1-2.61-3.11-2.61a2.94,2.94,0,0,0-3.09,2.05l-3.74-.86a5.66,5.66,0,0,1,2.29-3.61A7.47,7.47,0,0,1,290,705q7.51,0,7.52,7.51v10.68h-3.63l-.45-2.27a6.72,6.72,0,0,1-5.5,2.54A5.43,5.43,0,0,1,284,722,5.27,5.27,0,0,1,282.44,718.06Zm4.64-.07a1.73,1.73,0,0,0,.51,1.25,1.82,1.82,0,0,0,1.35.49,4.38,4.38,0,0,0,2.9-1.06,3.3,3.3,0,0,0,1.23-2.63v-.35h-2.94C288.1,715.69,287.08,716.45,287.08,718Z"/><path class="cls-2" d="M301.26,723.21V698.06h4.41v25.15Z"/><path class="cls-2" d="M318.29,723.21V698.06h4.41v10.12a6.34,6.34,0,0,1,5.67-3.17,5.73,5.73,0,0,1,4.11,1.39,5.28,5.28,0,0,1,1.48,4v12.78h-4.41V712c0-2.13-.89-3.19-2.67-3.19a3.49,3.49,0,0,0-3,1.81,9.05,9.05,0,0,0-1.2,5v7.57Z"/><path class="cls-2" d="M337.47,716.86a11.42,11.42,0,0,1,0-5.2,9.35,9.35,0,0,1,1-2.5,9.13,9.13,0,0,1,1.65-2.13,7.14,7.14,0,0,1,2.44-1.46,9.12,9.12,0,0,1,3.25-.55,8.62,8.62,0,0,1,3.75.79,6.69,6.69,0,0,1,2.66,2.19,9.56,9.56,0,0,1,1.92,5.86v1.82H341.77a4.19,4.19,0,0,0,1.25,2.86,4,4,0,0,0,3,1.18,4.86,4.86,0,0,0,4.34-2.76l3.55,1.3a8.19,8.19,0,0,1-8.13,5.22,9.2,9.2,0,0,1-3.25-.55,7.3,7.3,0,0,1-2.44-1.46,8.87,8.87,0,0,1-1.65-2.12A9.16,9.16,0,0,1,337.47,716.86Zm4.42-4.66h7.71c-.5-2.27-1.77-3.39-3.83-3.39a3.72,3.72,0,0,0-2.59,1A4,4,0,0,0,341.89,712.2Z"/><path class="cls-2" d="M355.88,718.06A5.11,5.11,0,0,1,358,713.8a8.9,8.9,0,0,1,5.53-1.6h3v-.78c0-1.75-1-2.61-3.11-2.61a2.94,2.94,0,0,0-3.09,2.05l-3.74-.86a5.66,5.66,0,0,1,2.29-3.61,7.49,7.49,0,0,1,4.54-1.36q7.51,0,7.52,7.51v10.68h-3.63l-.45-2.27a6.72,6.72,0,0,1-5.5,2.54,5.43,5.43,0,0,1-3.94-1.45A5.27,5.27,0,0,1,355.88,718.06Zm4.63-.07a1.69,1.69,0,0,0,.51,1.25,1.82,1.82,0,0,0,1.35.49,4.38,4.38,0,0,0,2.9-1.06A3.3,3.3,0,0,0,366.5,716v-.35h-2.94C361.54,715.69,360.51,716.45,360.51,718Z"/><path class="cls-2" d="M374.71,723.21V698.06h4.4v25.15Z"/><path class="cls-2" d="M381.59,709.08v-3.76h2.77v-4.48l4.41-2.77v7.25h4.72v3.76h-4.72v7.74a3.47,3.47,0,0,0,.58,2.23,2.18,2.18,0,0,0,1.77.68,3.74,3.74,0,0,0,1.7-.41l1,3.55a7.57,7.57,0,0,1-7.76-1.06,6.58,6.58,0,0,1-1.7-4.92v-7.81Z"/><path class="cls-2" d="M396.84,723.21V698.06h4.41v10.12a6.35,6.35,0,0,1,5.67-3.17A5.7,5.7,0,0,1,411,706.4a5.28,5.28,0,0,1,1.48,4v12.78H408.1V712c0-2.13-.89-3.19-2.67-3.19a3.49,3.49,0,0,0-3,1.81,9.05,9.05,0,0,0-1.2,5v7.57Z"/><path class="cls-2" d="M338.68,764.29v-1.82l8.93-11.39a7.28,7.28,0,0,0,1.93-4.48,3.31,3.31,0,0,0-.79-2.37,2.94,2.94,0,0,0-2.27-.86,3,3,0,0,0-2.2.83,4,4,0,0,0-1,2.39l-4.11-.78a6.65,6.65,0,0,1,2.3-4.78,7.47,7.47,0,0,1,5.16-1.91,6.83,6.83,0,0,1,7.36,7.29,9.51,9.51,0,0,1-2.13,5.82L345.74,760h8.8v4.25H338.68Z"/><path class="cls-2" d="M356.87,747.3a8.15,8.15,0,0,1,1.1-4.17,7.66,7.66,0,0,1,3-2.93,8.51,8.51,0,0,1,4.18-1.06,8.06,8.06,0,0,1,5.86,2.35,7.78,7.78,0,0,1,2.39,5.81,8.41,8.41,0,0,1-1.21,4.35L365,764.57H360l5.39-9.11h-.57a7.77,7.77,0,0,1-5.72-2.26A8,8,0,0,1,356.87,747.3Zm4.4,0a3.69,3.69,0,0,0,3.87,3.91,3.71,3.71,0,0,0,2.77-1.07,4.23,4.23,0,0,0,0-5.66,4,4,0,0,0-5.49,0A3.79,3.79,0,0,0,361.27,747.3Z"/><path class="cls-2" d="M378.6,748.82a5.54,5.54,0,0,1-1.71-4.08,5.29,5.29,0,0,1,1.69-4,6.32,6.32,0,0,1,8.44,0,5.62,5.62,0,0,1,0,8.11,6,6,0,0,1-4.23,1.63A5.64,5.64,0,0,1,378.6,748.82Zm.7,14.76,19.26-25.5,2.56,2-19.28,25.55Zm1.32-18.76a2.36,2.36,0,0,0,.55,1.59,2.16,2.16,0,0,0,1.63.61,2.12,2.12,0,0,0,1.61-.61,2.18,2.18,0,0,0,.6-1.59,2.13,2.13,0,0,0-.6-1.56,2.43,2.43,0,0,0-3.24,0A2.27,2.27,0,0,0,380.62,744.82ZM393.19,763a5.26,5.26,0,0,1-1.69-4,5.49,5.49,0,0,1,1.69-4.08,5.74,5.74,0,0,1,4.22-1.67,5.86,5.86,0,0,1,4.2,1.63,5.63,5.63,0,0,1,0,8.08,5.85,5.85,0,0,1-4.2,1.65A6,6,0,0,1,393.19,763Zm2-4.09a2.35,2.35,0,0,0,.55,1.59,2.17,2.17,0,0,0,1.63.61,2.12,2.12,0,0,0,1.58-.61,2.15,2.15,0,0,0,.61-1.59,2.09,2.09,0,0,0-.61-1.56,2,2,0,0,0-1.58-.63,2.05,2.05,0,0,0-1.63.63A2.2,2.2,0,0,0,395.23,758.89Z"/><g class="cls-3"><path class="cls-4" d="M806.44,811.84l-102-299.21-315,23.31c11.94,163.63,148.47,292.69,315.16,292.69A315.25,315.25,0,0,0,817.12,808C813.59,809.32,810,810.63,806.44,811.84Z"/></g><path class="cls-5" d="M704.58,196.61h-.14v316l102,299.22C931,769.46,1020.59,651.5,1020.59,512.62,1020.6,338.09,879.11,196.61,704.58,196.61Z"/><g class="cls-6"><path class="cls-4" d="M518.27,257.37l186,255.25v-316A314.61,314.61,0,0,0,518.27,257.37Z"/></g><g class="cls-7"><path class="cls-4" d="M704.58,512.62,518.33,257.34c-78.65,57.47-129.75,150.4-129.75,255.29,0,7.84.3,15.61.85,23.31Z"/></g><path class="cls-2" d="M19.8,899l1.55-.93A8.45,8.45,0,0,0,23,901.43a3.48,3.48,0,0,0,2.73,1.11,3.51,3.51,0,0,0,2.66-1,4,4,0,0,0,1-2.88q0-2.37-3-3.75a25.3,25.3,0,0,1-2.84-1.45A5,5,0,0,1,21,889.61c0-.14,0-.28,0-.43a4.75,4.75,0,0,1,1.29-3.4,4.24,4.24,0,0,1,3.23-1.37,5.12,5.12,0,0,1,2.28.45,3.83,3.83,0,0,1,1.35.91,10.45,10.45,0,0,1,1.09,1.63l-1.51,1a3.54,3.54,0,0,0-3.21-2.22,2.49,2.49,0,0,0-1.95.83,2.93,2.93,0,0,0-.74,2q0,2.25,3,3.63c.89.4,1.71.79,2.48,1.19a5.36,5.36,0,0,1,2.16,1.88,5.11,5.11,0,0,1,.83,2.93,5.62,5.62,0,0,1-1.54,4.09,5.38,5.38,0,0,1-4,1.58,5.45,5.45,0,0,1-3.84-1.42A7,7,0,0,1,19.8,899Z"/><path class="cls-2" d="M34.19,897.06A7.65,7.65,0,0,1,36,892a6.28,6.28,0,0,1,9.5,0,7.95,7.95,0,0,1,0,10.1,6.32,6.32,0,0,1-9.5,0A7.69,7.69,0,0,1,34.19,897.06Zm1.83,0A6.45,6.45,0,0,0,37.26,901a4.15,4.15,0,0,0,3.49,1.66A4.07,4.07,0,0,0,44.21,901a6.75,6.75,0,0,0,0-7.88,4.08,4.08,0,0,0-3.46-1.67,4.16,4.16,0,0,0-3.49,1.67A6.43,6.43,0,0,0,36,897.06Z"/><path class="cls-2" d="M51.32,899.66v-9.59H53v9.37q0,3.22,2.86,3.22a3.64,3.64,0,0,0,2.5-.95,5.56,5.56,0,0,0,1.54-2.39,9.55,9.55,0,0,0,.49-3.13v-6.12h1.67v14H60.38v-2.91a6.14,6.14,0,0,1-2,2.28,4.93,4.93,0,0,1-2.77.85A4.07,4.07,0,0,1,52.46,903,4.75,4.75,0,0,1,51.32,899.66Z"/><path class="cls-2" d="M67.46,904v-14h1.67v2.49a4.28,4.28,0,0,1,4.1-2.72,5.83,5.83,0,0,1,2.1.47L75,892a4,4,0,0,0-2-.5,3.16,3.16,0,0,0-2.78,1.91,10.9,10.9,0,0,0-1.06,5.28V904Z"/><path class="cls-2" d="M77.42,897.06A8,8,0,0,1,79.08,892a5.4,5.4,0,0,1,4.54-2.14,5.52,5.52,0,0,1,5.63,3.86l-1.56.61a4.09,4.09,0,0,0-4.07-2.86,3.72,3.72,0,0,0-3.27,1.61,6.77,6.77,0,0,0-1.11,4,7,7,0,0,0,1.11,4,3.75,3.75,0,0,0,3.27,1.58,4.09,4.09,0,0,0,4.07-2.85l1.56.61a5.53,5.53,0,0,1-5.63,3.84,5.39,5.39,0,0,1-4.54-2.1A8,8,0,0,1,77.42,897.06Z"/><path class="cls-2" d="M92.05,897.06a8.7,8.7,0,0,1,.74-3.61A6.26,6.26,0,0,1,95,890.83a5.64,5.64,0,0,1,3.3-1,5.78,5.78,0,0,1,4.43,1.81,6.54,6.54,0,0,1,1.7,4.64v.77H93.88a6.5,6.5,0,0,0,1.19,4.07,3.85,3.85,0,0,0,3.21,1.53,4.32,4.32,0,0,0,2.55-.69,5.89,5.89,0,0,0,1.76-2.31l1.53.76a7.44,7.44,0,0,1-2.42,3,6.24,6.24,0,0,1-3.42.89,5.74,5.74,0,0,1-3.31-1,6.23,6.23,0,0,1-2.17-2.61A8.51,8.51,0,0,1,92.05,897.06ZM94,895.45h8.66a4.8,4.8,0,0,0-1.4-2.94,4.16,4.16,0,0,0-3-1.06,3.85,3.85,0,0,0-2.79,1.1A5.4,5.4,0,0,0,94,895.45Z"/><path class="cls-2" d="M108.52,892.48a1.34,1.34,0,0,1,.27-.82,1.45,1.45,0,0,1,.64-.52,1.51,1.51,0,0,1,.82-.1,1.51,1.51,0,0,1,1.17,1.17,1.59,1.59,0,0,1-.09.82,1.56,1.56,0,0,1-.53.65,1.33,1.33,0,0,1-.82.28,1.43,1.43,0,0,1-1.06-.41A1.45,1.45,0,0,1,108.52,892.48Zm0,10.15a1.37,1.37,0,0,1,.27-.83,1.45,1.45,0,0,1,.64-.52,1.42,1.42,0,0,1,.82-.09,1.29,1.29,0,0,1,.76.4,1.33,1.33,0,0,1,.41.77,1.59,1.59,0,0,1-.09.82,1.5,1.5,0,0,1-.53.65,1.32,1.32,0,0,1-.82.27,1.47,1.47,0,0,1-1.06-.4A1.43,1.43,0,0,1,108.52,902.63Z"/><path class="cls-2" d="M123.85,904V884.63h6.24a5.62,5.62,0,0,1,4,1.32,4.75,4.75,0,0,1,1.42,3.67,4,4,0,0,1-.71,2.3,4,4,0,0,1-1.75,1.51,5.3,5.3,0,0,1,2.53,1.84,5.2,5.2,0,0,1,.92,3.17,5.38,5.38,0,0,1-1.61,4.08,6.07,6.07,0,0,1-4.35,1.52Zm1.83-11.2h4.4q3.51,0,3.51-3.24t-3.51-3.25h-4.4Zm0,9.48h4.49a5,5,0,0,0,3.32-.92,4.6,4.6,0,0,0,0-5.92,5.06,5.06,0,0,0-3.32-.91h-4.49Z"/><path class="cls-2" d="M140.61,886.05a1.34,1.34,0,0,1,.42-1,1.48,1.48,0,0,1,1-.41,1.31,1.31,0,0,1,1,.41,1.36,1.36,0,0,1,.41,1,1.44,1.44,0,0,1-.41,1,1.33,1.33,0,0,1-1,.39,1.5,1.5,0,0,1-1-.39A1.41,1.41,0,0,1,140.61,886.05Zm.61,18v-14h1.67v14Z"/><path class="cls-2" d="M148.49,904V884.41h1.67V904Z"/><path class="cls-2" d="M155.25,904V884.41h1.67V904Z"/><path class="cls-2" d="M168.58,898.67a6.16,6.16,0,0,1,1-3.58,7.35,7.35,0,0,1,2.71-2.42,7.73,7.73,0,0,1-1.78-4.13,4,4,0,0,1,1.19-3,4.13,4.13,0,0,1,3-1.12,4.26,4.26,0,0,1,3.05,1.08,3.66,3.66,0,0,1,1.14,2.8c0,1.89-1.35,3.54-4,4.93l4.52,5.8a25.85,25.85,0,0,0,1.46-3.55l1.2,1.4a22.62,22.62,0,0,1-1.59,3.55l2.86,3.62h-2l-1.8-2.27a6.58,6.58,0,0,1-5.35,2.49,5.55,5.55,0,0,1-4.06-1.49A5.48,5.48,0,0,1,168.58,898.67Zm1.66.05a3.82,3.82,0,0,0,1.09,2.85,3.78,3.78,0,0,0,2.82,1.09,5.08,5.08,0,0,0,4.26-2.22l-5.08-6.52A5.27,5.27,0,0,0,170.24,898.72Zm2-10.07a6.11,6.11,0,0,0,1.61,3.33,9.45,9.45,0,0,0,2.6-1.69,2.57,2.57,0,0,0,.8-1.86,2.5,2.5,0,0,0-.67-1.81,2.43,2.43,0,0,0-1.86-.71,2.37,2.37,0,0,0-1.82.72A2.87,2.87,0,0,0,172.22,888.65Z"/><path class="cls-2" d="M194.39,904V884.63h2.27l5.77,14.62,5.77-14.62h2.27V904h-1.82V888.19L203,902.27h-1.16l-5.64-14.08V904Z"/><path class="cls-2" d="M214.82,897.06a8.7,8.7,0,0,1,.74-3.61,6.23,6.23,0,0,1,2.16-2.62,5.68,5.68,0,0,1,3.3-1,5.8,5.8,0,0,1,4.44,1.81,6.54,6.54,0,0,1,1.7,4.64v.77H216.65a6.5,6.5,0,0,0,1.18,4.07,3.85,3.85,0,0,0,3.22,1.53,4.29,4.29,0,0,0,2.54-.69,5.89,5.89,0,0,0,1.76-2.31l1.54.76a7.45,7.45,0,0,1-2.43,3,6.2,6.2,0,0,1-3.41.89,5.71,5.71,0,0,1-3.31-1,6.25,6.25,0,0,1-2.18-2.61A8.66,8.66,0,0,1,214.82,897.06Zm1.91-1.61h8.65a4.74,4.74,0,0,0-1.39-2.94,4.17,4.17,0,0,0-3-1.06,3.88,3.88,0,0,0-2.79,1.1A5.33,5.33,0,0,0,216.73,895.45Z"/><path class="cls-2" d="M231.18,904V884.41h1.66V904Z"/><path class="cls-2" d="M237.81,886.05a1.34,1.34,0,0,1,.42-1,1.48,1.48,0,0,1,1-.41,1.31,1.31,0,0,1,1,.41,1.36,1.36,0,0,1,.41,1,1.44,1.44,0,0,1-.41,1,1.33,1.33,0,0,1-1,.39,1.5,1.5,0,0,1-1-.39A1.41,1.41,0,0,1,237.81,886.05Zm.61,18v-14h1.67v14Z"/><path class="cls-2" d="M245.75,904v-14h1.66V893a6.08,6.08,0,0,1,2-2.28,4.92,4.92,0,0,1,2.77-.86,4,4,0,0,1,3.11,1.21,4.8,4.8,0,0,1,1.13,3.39V904h-1.67v-9.37q0-3.23-2.86-3.22a3.61,3.61,0,0,0-2.5.95,5.51,5.51,0,0,0-1.53,2.38,9.55,9.55,0,0,0-.49,3.13V904Z"/><path class="cls-2" d="M260.6,897.06a9.22,9.22,0,0,1,.42-2.83,7.25,7.25,0,0,1,1.21-2.29,5.48,5.48,0,0,1,2-1.54,6.16,6.16,0,0,1,2.65-.56,5.18,5.18,0,0,1,2.38.62,5.68,5.68,0,0,1,2,1.57v-7.62H273V904h-1.77v-1.82a4.53,4.53,0,0,1-1.81,1.45,5.94,5.94,0,0,1-2.55.59,5.61,5.61,0,0,1-4.6-2A8,8,0,0,1,260.6,897.06Zm1.83,0a6.44,6.44,0,0,0,1.2,4.07,4.35,4.35,0,0,0,6.62,0,6.56,6.56,0,0,0,1.17-4.07,7.78,7.78,0,0,0-.48-2.81,4.66,4.66,0,0,0-1.52-2,4,4,0,0,0-2.47-.78,3.9,3.9,0,0,0-3.33,1.6A6.54,6.54,0,0,0,262.43,897.06Z"/><path class="cls-2" d="M277.21,900a3.88,3.88,0,0,1,1.68-3.4,8.29,8.29,0,0,1,4.76-1.17H286v-.61a3.47,3.47,0,0,0-.84-2.55,3.53,3.53,0,0,0-5.69,1.77l-1.66-.39a4.18,4.18,0,0,1,1.65-2.78,5.32,5.32,0,0,1,3.31-1,4.8,4.8,0,0,1,3.49,1.34,4.6,4.6,0,0,1,1.41,3.6V904h-1.3l-.37-2.16a4.73,4.73,0,0,1-4.42,2.38,4.54,4.54,0,0,1-3.17-1.07A4,4,0,0,1,277.21,900Zm1.82,0a2.54,2.54,0,0,0,.73,2,2.75,2.75,0,0,0,2,.69,4.1,4.1,0,0,0,2.91-1.26,5,5,0,0,0,1.32-3.82v-.52h-2.27a6.43,6.43,0,0,0-3.49.77A2.46,2.46,0,0,0,279,900Z"/><path class="cls-2" d="M298.28,894.33q0-4.7,2.49-7.31a8,8,0,0,1,6-2.61,7.68,7.68,0,0,1,4.8,1.5,7.52,7.52,0,0,1,2.69,4.16l-1.81.5a6.56,6.56,0,0,0-2.13-3.3,5.55,5.55,0,0,0-3.55-1.14,6.06,6.06,0,0,0-3.64,1.09,6.41,6.41,0,0,0-2.24,2.92,12.58,12.58,0,0,0,0,8.39,6.46,6.46,0,0,0,2.23,2.92,6.07,6.07,0,0,0,3.65,1.09,5.41,5.41,0,0,0,4.27-1.68,7.22,7.22,0,0,0,1.5-4.89h-4.49v-1.72h6.32V904h-1.61l-.22-3a5.56,5.56,0,0,1-2.31,2.35,7,7,0,0,1-3.46.86,8,8,0,0,1-6-2.6Q298.28,899.05,298.28,894.33Z"/><path class="cls-2" d="M317.84,900a3.89,3.89,0,0,1,1.69-3.4,8.29,8.29,0,0,1,4.76-1.17h2.33v-.61a3.43,3.43,0,0,0-.85-2.55,3.52,3.52,0,0,0-5.68,1.77l-1.66-.39a4.18,4.18,0,0,1,1.65-2.78,5.3,5.3,0,0,1,3.31-1,4.81,4.81,0,0,1,3.49,1.34,4.63,4.63,0,0,1,1.4,3.6V904H327l-.36-2.16a4.73,4.73,0,0,1-4.42,2.38,4.58,4.58,0,0,1-3.18-1.07A4.08,4.08,0,0,1,317.84,900Zm1.83,0a2.57,2.57,0,0,0,.72,2,2.79,2.79,0,0,0,2,.69,4.06,4.06,0,0,0,2.9-1.26,5,5,0,0,0,1.33-3.82v-.52h-2.27a6.41,6.41,0,0,0-3.49.77A2.46,2.46,0,0,0,319.67,900Z"/><path class="cls-2" d="M331,891.68v-1.61h2.48v-4.52l1.77-1.14v5.66H339v1.61h-3.71v8.68c0,1.54.65,2.3,1.94,2.3a3.2,3.2,0,0,0,1.75-.44l.47,1.55a5,5,0,0,1-2.44.49,3.21,3.21,0,0,1-2.56-1.06,4.61,4.61,0,0,1-.93-3.12v-8.4Z"/><path class="cls-2" d="M342.12,897.06a8.7,8.7,0,0,1,.74-3.61,6.26,6.26,0,0,1,2.17-2.62,5.64,5.64,0,0,1,3.3-1,5.78,5.78,0,0,1,4.43,1.81,6.54,6.54,0,0,1,1.7,4.64v.77H344a6.5,6.5,0,0,0,1.19,4.07,3.85,3.85,0,0,0,3.21,1.53,4.32,4.32,0,0,0,2.55-.69,6,6,0,0,0,1.76-2.31l1.53.76a7.37,7.37,0,0,1-2.43,3,6.18,6.18,0,0,1-3.41.89,5.74,5.74,0,0,1-3.31-1,6.15,6.15,0,0,1-2.17-2.61A8.51,8.51,0,0,1,342.12,897.06Zm1.91-1.61h8.66a4.8,4.8,0,0,0-1.4-2.94,4.16,4.16,0,0,0-3-1.06,3.85,3.85,0,0,0-2.79,1.1A5.4,5.4,0,0,0,344,895.45Z"/><path class="cls-2" d="M357.37,900.44l1.52-.81a5.74,5.74,0,0,0,1.36,2.27,3,3,0,0,0,2.16.76,2.29,2.29,0,0,0,2.53-2.5,2,2,0,0,0-.64-1.44,4.71,4.71,0,0,0-1.69-1,17.62,17.62,0,0,1-2.29-1,3.48,3.48,0,0,1-2-2.91v-.2a3.55,3.55,0,0,1,1.11-2.7,3.93,3.93,0,0,1,2.81-1,4.65,4.65,0,0,1,3.9,2.17l-1.24,1a3.4,3.4,0,0,0-2.75-1.61,2,2,0,0,0-1.48.59,2.09,2.09,0,0,0-.57,1.52c0,.91.77,1.67,2.33,2.31a14.09,14.09,0,0,1,2.71,1.3,3.2,3.2,0,0,1,1.62,2.72,4.06,4.06,0,0,1-4.36,4.37,4.88,4.88,0,0,1-3.24-1.06A5.57,5.57,0,0,1,357.37,900.44Z"/><path class="cls-2" d="M378.13,904V884.63h11.14v1.72H380v6.71h7.65v1.72H380V904Z"/><path class="cls-2" d="M392.5,897.06a7.6,7.6,0,0,1,1.81-5,6.28,6.28,0,0,1,9.5,0,7.95,7.95,0,0,1,0,10.1,6.32,6.32,0,0,1-9.5,0A7.64,7.64,0,0,1,392.5,897.06Zm1.83,0a6.45,6.45,0,0,0,1.24,3.94,4.15,4.15,0,0,0,3.49,1.66,4.07,4.07,0,0,0,3.46-1.66,6.75,6.75,0,0,0,0-7.88,4.08,4.08,0,0,0-3.46-1.67,4.16,4.16,0,0,0-3.49,1.67A6.43,6.43,0,0,0,394.33,897.06Z"/><path class="cls-2" d="M409.63,899.66v-9.59h1.66v9.37c0,2.15,1,3.22,2.86,3.22a3.63,3.63,0,0,0,2.5-.95,5.58,5.58,0,0,0,1.55-2.39,9.83,9.83,0,0,0,.49-3.13v-6.12h1.66v14h-1.66v-2.91a6.08,6.08,0,0,1-2,2.28,4.91,4.91,0,0,1-2.77.85,4.07,4.07,0,0,1-3.12-1.22A4.79,4.79,0,0,1,409.63,899.66Z"/><path class="cls-2" d="M425.77,904v-14h1.66V893a6.08,6.08,0,0,1,2-2.28,4.92,4.92,0,0,1,2.77-.86,4,4,0,0,1,3.11,1.21,4.8,4.8,0,0,1,1.13,3.39V904h-1.67v-9.37q0-3.23-2.86-3.22a3.61,3.61,0,0,0-2.5.95,5.51,5.51,0,0,0-1.53,2.38,9.55,9.55,0,0,0-.49,3.13V904Z"/><path class="cls-2" d="M440.62,897.06a9.22,9.22,0,0,1,.42-2.83,7.25,7.25,0,0,1,1.21-2.29,5.48,5.48,0,0,1,2-1.54,6.16,6.16,0,0,1,2.65-.56,5.18,5.18,0,0,1,2.38.62,5.68,5.68,0,0,1,2,1.57v-7.62H453V904h-1.77v-1.82a4.5,4.5,0,0,1-1.82,1.45,5.9,5.9,0,0,1-2.54.59,5.61,5.61,0,0,1-4.6-2A8,8,0,0,1,440.62,897.06Zm1.83,0a6.44,6.44,0,0,0,1.2,4.07,4.35,4.35,0,0,0,6.62,0,6.56,6.56,0,0,0,1.17-4.07,7.78,7.78,0,0,0-.48-2.81,4.66,4.66,0,0,0-1.52-2,4,4,0,0,0-2.47-.78,3.9,3.9,0,0,0-3.33,1.6A6.54,6.54,0,0,0,442.45,897.06Z"/><path class="cls-2" d="M457.23,900a3.88,3.88,0,0,1,1.68-3.4,8.29,8.29,0,0,1,4.76-1.17H466v-.61a3.47,3.47,0,0,0-.84-2.55,3.53,3.53,0,0,0-5.69,1.77l-1.66-.39a4.18,4.18,0,0,1,1.65-2.78,5.32,5.32,0,0,1,3.31-1,4.8,4.8,0,0,1,3.49,1.34,4.6,4.6,0,0,1,1.41,3.6V904h-1.3l-.37-2.16a4.73,4.73,0,0,1-4.42,2.38,4.58,4.58,0,0,1-3.18-1.07A4.08,4.08,0,0,1,457.23,900Zm1.82,0a2.54,2.54,0,0,0,.73,2,2.75,2.75,0,0,0,2,.69,4.1,4.1,0,0,0,2.91-1.26,5,5,0,0,0,1.32-3.82v-.52h-2.27a6.43,6.43,0,0,0-3.49.77A2.46,2.46,0,0,0,459.05,900Z"/><path class="cls-2" d="M470.41,891.68v-1.61h2.48v-4.52l1.78-1.14v5.66h3.71v1.61h-3.71v8.68c0,1.54.64,2.3,1.93,2.3a3.17,3.17,0,0,0,1.75-.44l.47,1.55a5,5,0,0,1-2.43.49,3.22,3.22,0,0,1-2.57-1.06,4.61,4.61,0,0,1-.93-3.12v-8.4Z"/><path class="cls-2" d="M482.44,886.05a1.36,1.36,0,0,1,.41-1,1.49,1.49,0,0,1,1-.41,1.29,1.29,0,0,1,1,.41,1.34,1.34,0,0,1,.42,1,1.41,1.41,0,0,1-.42,1,1.31,1.31,0,0,1-1,.39,1.52,1.52,0,0,1-1-.39A1.44,1.44,0,0,1,482.44,886.05Zm.61,18v-14h1.66v14Z"/><path class="cls-2" d="M489.26,897.06a7.61,7.61,0,0,1,1.82-5,6.27,6.27,0,0,1,9.49,0,7.92,7.92,0,0,1,0,10.1,6.31,6.31,0,0,1-9.49,0A7.64,7.64,0,0,1,489.26,897.06Zm1.83,0a6.45,6.45,0,0,0,1.25,3.94,4.13,4.13,0,0,0,3.48,1.66,4.09,4.09,0,0,0,3.47-1.66,6.75,6.75,0,0,0,0-7.88,4.09,4.09,0,0,0-3.47-1.67,4.14,4.14,0,0,0-3.48,1.67A6.43,6.43,0,0,0,491.09,897.06Z"/><path class="cls-2" d="M506.57,904v-14h1.67V893a6,6,0,0,1,2-2.28,4.92,4.92,0,0,1,2.77-.86,4,4,0,0,1,3.11,1.21,4.8,4.8,0,0,1,1.13,3.39V904h-1.66v-9.37q0-3.23-2.87-3.22a3.63,3.63,0,0,0-2.5.95,5.51,5.51,0,0,0-1.53,2.38,9.83,9.83,0,0,0-.48,3.13V904Z"/><rect x="1161.57" y="867" width="238.43" height="59"/><path class="cls-8" d="M1190.84,905.71A3.53,3.53,0,0,1,1192,903a3.24,3.24,0,0,1-.71-2.11A3.19,3.19,0,0,1,1193,898a4.37,4.37,0,0,1-1-2.84,4.29,4.29,0,0,1,1.44-3.35,5.2,5.2,0,0,1,3.6-1.3,5.37,5.37,0,0,1,2.53.6l2.59-1.35,1.33,2.23-2,1a4.32,4.32,0,0,1,.54,2.18,4.21,4.21,0,0,1-1.43,3.32,5.27,5.27,0,0,1-3.6,1.26,6.81,6.81,0,0,1-2-.31,1.15,1.15,0,0,0-.62,1c0,.68.42,1,1.25,1h2.81a5.44,5.44,0,0,1,3.53,1.06,3.62,3.62,0,0,1,1.3,3,4,4,0,0,1-1,2.7,6.53,6.53,0,0,1-5.28,2,10.63,10.63,0,0,1-1.92-.17,7.3,7.3,0,0,1-1.7-.52,5,5,0,0,1-1.36-.87,3.86,3.86,0,0,1-.91-1.28A4.18,4.18,0,0,1,1190.84,905.71Zm3.16-.27a1.62,1.62,0,0,0,.82,1.46,4.35,4.35,0,0,0,2.24.5c1.91,0,2.86-.56,2.86-1.69,0-.94-.74-1.41-2.21-1.41h-1.85a9,9,0,0,1-1.56-.11A2.44,2.44,0,0,0,1194,905.44Zm1.14-10.3a1.79,1.79,0,0,0,.53,1.33,1.86,1.86,0,0,0,1.36.52,1.82,1.82,0,0,0,1.35-.52,1.79,1.79,0,0,0,.53-1.33,1.9,1.9,0,0,0-.53-1.38,1.8,1.8,0,0,0-1.35-.54,1.84,1.84,0,0,0-1.36.54A1.9,1.9,0,0,0,1195.14,895.14Z"/><path class="cls-8" d="M1203.92,900.51a3.9,3.9,0,0,1,1.62-3.27,6.8,6.8,0,0,1,4.24-1.23h2.29v-.6c0-1.34-.8-2-2.39-2a2.24,2.24,0,0,0-2.37,1.57l-2.87-.65a4.34,4.34,0,0,1,1.76-2.78,5.7,5.7,0,0,1,3.48-1c3.84,0,5.77,1.93,5.77,5.77v8.2h-2.78l-.35-1.74a5.18,5.18,0,0,1-4.22,1.95,4.19,4.19,0,0,1-3-1.11A4,4,0,0,1,1203.92,900.51Zm3.55-.06a1.27,1.27,0,0,0,.39.95,1.37,1.37,0,0,0,1,.38,3.35,3.35,0,0,0,2.23-.81,2.55,2.55,0,0,0,1-2v-.27h-2.26Q1207.47,898.68,1207.47,900.45Z"/><path class="cls-8" d="M1216.45,893.61v-2.89h2.13v-3.43l3.38-2.13v5.56h3.62v2.89H1222v5.94a2.64,2.64,0,0,0,.44,1.71,1.67,1.67,0,0,0,1.36.52,2.66,2.66,0,0,0,1.3-.32l.79,2.73a5.17,5.17,0,0,1-2.24.48,4.55,4.55,0,0,1-5-5.07v-6Z"/><path class="cls-8" d="M1226.94,899.59a9.2,9.2,0,0,1,0-4,7.15,7.15,0,0,1,.75-1.91,6.39,6.39,0,0,1,1.26-1.63,5.61,5.61,0,0,1,1.88-1.13,7.07,7.07,0,0,1,2.49-.43,6.61,6.61,0,0,1,2.88.62,5.12,5.12,0,0,1,2,1.67,7.38,7.38,0,0,1,1.48,4.5v1.4h-9.46a3.27,3.27,0,0,0,1,2.21,3.1,3.1,0,0,0,2.3.89,3.7,3.7,0,0,0,3.32-2.11l2.73,1a6.27,6.27,0,0,1-6.24,4,7.07,7.07,0,0,1-2.49-.42,5.61,5.61,0,0,1-1.88-1.13,6.71,6.71,0,0,1-1.26-1.62A7.15,7.15,0,0,1,1226.94,899.59Zm3.4-3.58h5.92q-.57-2.61-2.94-2.61a2.89,2.89,0,0,0-2,.74A3.15,3.15,0,0,0,1230.34,896Z"/><path class="cls-8" d="M1240.6,901l2.68-1.45c.55,1.51,1.47,2.26,2.76,2.26,1.12,0,1.68-.48,1.68-1.46a1.09,1.09,0,0,0-.73-1,4.6,4.6,0,0,0-.75-.33c-.17-.08-.5-.21-1-.38s-.81-.29-1-.35a5.22,5.22,0,0,1-2.09-1.46,3.45,3.45,0,0,1-.7-2.26,3.78,3.78,0,0,1,1.24-2.83,4.37,4.37,0,0,1,3.16-1.18,5.12,5.12,0,0,1,2.47.62,4.87,4.87,0,0,1,1.8,1.62l-2,1.87a2.82,2.82,0,0,0-2.27-1.2,1.33,1.33,0,0,0-.89.3,1.06,1.06,0,0,0-.36.84c0,.56.43,1,1.3,1.33.6.22,1.31.48,2.14.76a8,8,0,0,1,1.06.57,3.77,3.77,0,0,1,.88.66,3.28,3.28,0,0,1,.84,2.23,4.44,4.44,0,0,1-1.35,3.25,4.68,4.68,0,0,1-3.49,1.33,5.45,5.45,0,0,1-3.34-1.08A6.22,6.22,0,0,1,1240.6,901Z"/><path class="cls-8" d="M1253.06,904.46v-19.3h3.38v19.3Z"/><path class="cls-8" d="M1258.81,899.59a9.2,9.2,0,0,1,0-4,7.51,7.51,0,0,1,.75-1.91,6.63,6.63,0,0,1,1.26-1.63,5.71,5.71,0,0,1,1.88-1.13,7.15,7.15,0,0,1,2.49-.43,6.55,6.55,0,0,1,2.88.62,5.22,5.22,0,0,1,2,1.67,7.44,7.44,0,0,1,1.47,4.5v1.4h-9.46a3.27,3.27,0,0,0,.95,2.21,3.12,3.12,0,0,0,2.3.89,3.72,3.72,0,0,0,3.33-2.11l2.73,1a6.3,6.3,0,0,1-6.25,4,7.15,7.15,0,0,1-2.49-.42,5.71,5.71,0,0,1-1.88-1.13,7,7,0,0,1-1.26-1.62A7.51,7.51,0,0,1,1258.81,899.59Zm3.4-3.58h5.92q-.57-2.61-2.94-2.61a2.84,2.84,0,0,0-2,.74A3.16,3.16,0,0,0,1262.21,896Z"/><path class="cls-8" d="M1272,893.61v-2.89h2.13v-3.43l3.38-2.13v5.56h3.62v2.89h-3.62v5.94a2.64,2.64,0,0,0,.44,1.71,1.67,1.67,0,0,0,1.36.52,2.69,2.69,0,0,0,1.3-.32l.79,2.73a5.17,5.17,0,0,1-2.24.48,4.55,4.55,0,0,1-5-5.07v-6Z"/><path class="cls-8" d="M1281.55,893.61v-2.89h2.14v-3.43l3.38-2.13v5.56h3.62v2.89h-3.62v5.94a2.58,2.58,0,0,0,.44,1.71,1.65,1.65,0,0,0,1.35.52,2.7,2.7,0,0,0,1.31-.32l.78,2.73a5.13,5.13,0,0,1-2.23.48,4.55,4.55,0,0,1-5-5.07v-6Z"/><path class="cls-8" d="M1292.05,899.59a8.81,8.81,0,0,1,0-4,7.47,7.47,0,0,1,.74-1.91,6.43,6.43,0,0,1,1.27-1.63,5.56,5.56,0,0,1,1.87-1.13,7.15,7.15,0,0,1,2.49-.43,6.62,6.62,0,0,1,2.89.62,5.26,5.26,0,0,1,2,1.67,7.45,7.45,0,0,1,1.48,4.5v1.4h-9.47a3.31,3.31,0,0,0,1,2.21,3.12,3.12,0,0,0,2.3.89,3.72,3.72,0,0,0,3.33-2.11l2.73,1a6.3,6.3,0,0,1-6.25,4,7.15,7.15,0,0,1-2.49-.42,5.56,5.56,0,0,1-1.87-1.13,6.75,6.75,0,0,1-1.27-1.62A7.47,7.47,0,0,1,1292.05,899.59Zm3.39-3.58h5.93c-.39-1.74-1.37-2.61-2.95-2.61a2.84,2.84,0,0,0-2,.74A3.22,3.22,0,0,0,1295.44,896Z"/><path class="cls-8" d="M1306.89,904.46V890.72h3.38V893a5.62,5.62,0,0,1,1.81-1.82,4.23,4.23,0,0,1,2.25-.65,5.83,5.83,0,0,1,1.67.28l-.63,3.13a2.76,2.76,0,0,0-1.42-.37,3.06,3.06,0,0,0-2.69,1.51,8.36,8.36,0,0,0-1,4.53v4.89Z"/><path class="cls-8" d="M1315.47,904a2.29,2.29,0,0,1,0-3.13,2.19,2.19,0,1,1,0,3.13Z"/><path class="cls-8" d="M1321.32,897.59a7.4,7.4,0,0,1,1.75-5.07,6.32,6.32,0,0,1,5-2c3.09,0,5.18,1.31,6.24,3.93l-3,1.23a3.46,3.46,0,0,0-3.22-2.25,2.71,2.71,0,0,0-2.35,1.14,5.06,5.06,0,0,0-.82,3.05,5.11,5.11,0,0,0,.82,3.06,2.73,2.73,0,0,0,2.35,1.13,3.48,3.48,0,0,0,3.22-2.26l3,1.23c-1.06,2.61-3.15,3.92-6.24,3.92a6.31,6.31,0,0,1-5-2A7.4,7.4,0,0,1,1321.32,897.59Z"/><path class="cls-8" d="M1335.25,897.59a7,7,0,0,1,1.92-5.11,6.76,6.76,0,0,1,5.06-2,6.67,6.67,0,0,1,5.1,2,7.8,7.8,0,0,1,0,10.17,7.55,7.55,0,0,1-10.19,0A7.15,7.15,0,0,1,1335.25,897.59Zm3.55,0a4.79,4.79,0,0,0,.93,3,3.2,3.2,0,0,0,5,0,5.27,5.27,0,0,0,0-6,3,3,0,0,0-2.51-1.22,3,3,0,0,0-2.5,1.22A4.78,4.78,0,0,0,1338.8,897.59Z"/><path class="cls-8" d="M1351.46,904.46V890.72h3.39v2.21a4.68,4.68,0,0,1,4-2.44,4,4,0,0,1,2.4.74,3.87,3.87,0,0,1,1.45,2.1q1.61-2.83,4.19-2.84a4,4,0,0,1,3,1.13,4.32,4.32,0,0,1,1.09,3.11v9.73h-3.38V895.3c0-1.27-.57-1.9-1.69-1.9a2.43,2.43,0,0,0-2.16,1.49,9,9,0,0,0-.81,4.23v5.34h-3.38V895.3c0-1.27-.57-1.9-1.7-1.9a2.42,2.42,0,0,0-2.15,1.57,9.85,9.85,0,0,0-.81,4.44v5.05Z"/></svg>